<?xml version="1.0" encoding="utf-8"?>
<svg width="260.3009px" height="111.51367px" viewBox="0 0 260.3009 111.51367" version="1.1" xmlns:xlink="http://www.w3.org/1999/xlink" xmlns="http://www.w3.org/2000/svg">
  <g id="1sdev">
    <path d="M77.073 37.0518C83.5982 18.8096 99.1219 5.25171 118.083 1.23682C146.422 -4.80225 174.674 11.8052 183.165 39.4927C180.753 40.1985 178.312 40.9141 175.844 41.6384C169.873 21.9253 151.561 7.57471 129.899 7.57471C103.389 7.57471 81.8985 29.0649 81.8985 55.5747C81.8985 60.1304 82.5332 64.5378 83.7189 68.7134L75.9135 70.9751C63.0798 74.7134 51.1469 78.3179 40.7186 81.4663C13.8112 89.5928 -3.07266 94.6912 0.467133 91.2686C2.53937 89.2954 38.5911 76.5449 55.9181 65.1777C72.1218 54.5383 74.1113 45.2603 76.1151 39.9587L76.1812 39.6687C76.4652 38.7996 76.7442 37.9097 77.073 37.0518L77.073 37.0518ZM257.759 18.8989C248.855 20.4924 219.705 28.8389 183.651 39.3765C184.127 40.9146 184.53 42.5105 184.872 44.1196C185.334 46.2693 185.661 48.4463 185.853 50.6377C191.983 48.1423 198.068 45.6753 203.965 43.2847C240.165 28.6106 269.239 16.8245 257.759 18.8989L257.759 18.8989ZM129.899 103.575C117.477 103.575 106.158 98.8567 97.6352 91.115C89.4979 103.019 110.415 109.023 115.067 110.146L115.469 110.232L115.919 110.348C133.263 113.945 151.286 109.113 164.502 97.3215C177.718 85.5315 184.561 68.1768 182.948 50.5464C181.238 51.2478 179.525 51.9519 177.811 52.6572C177.869 53.6223 177.899 54.5952 177.899 55.5747C177.899 82.0845 156.408 103.575 129.899 103.575L129.899 103.575Z" id="Вектор" fill="#9EA3B0" fill-rule="evenodd" stroke="none" />
    <path d="M107.193 90.3193C107.893 90.7771 108.606 91.2146 109.334 91.6306L116.808 91.6306L116.808 19.4856L109.396 19.4856C105.016 21.979 101.135 25.2466 97.9377 29.1023L107.193 29.1023L107.193 90.3193L107.193 90.3193ZM151.997 90.7087C155.699 88.3752 159.007 85.4729 161.797 82.1243C160.752 82.1091 159.769 82.0886 159.385 82.0632C156.524 81.8726 153.226 81.3711 150.625 80.6177C150.138 80.4766 148.12 79.7349 147.607 79.4995C138.55 75.3044 132.241 66.147 132.241 55.5227C132.241 40.9504 144.097 29.0811 158.678 29.0811C159.808 29.0811 160.922 29.1523 162.015 29.2905C159.095 25.7273 155.594 22.6587 151.656 20.2297C135.166 23.5044 122.693 38.0823 122.693 55.5227C122.693 69.2026 130.386 81.1003 141.651 87.1787C143.685 88.2546 146.604 89.3633 147.595 89.667C148.96 90.0735 150.458 90.4219 151.997 90.7087L151.997 90.7087ZM93.1438 74.864C95.4939 79.333 98.6352 83.321 102.381 86.6418L102.381 33.9072L94.4977 33.9072C92.737 36.7776 91.3156 39.8787 90.2895 43.1543L93.1438 43.1543L93.1438 74.864L93.1438 74.864ZM165.856 76.3098C167.51 73.447 168.832 70.3682 169.77 67.1262L164.928 67.1262C164.234 67.1262 160.602 67.1028 159.931 67.0461C158.794 66.9497 157.146 66.7803 156.086 66.5378C154.89 66.2175 153.768 65.7937 153.261 65.5161C149.714 63.5974 147.296 59.845 147.296 55.5227C147.296 49.2349 152.388 44.1357 158.678 44.1357C164.837 44.1357 169.844 49.0347 170.044 55.1555L171.396 55.1555C171.33 48.4924 169.694 42.2053 166.84 36.6465C164.339 35.5625 161.579 34.9617 158.678 34.9617C147.32 34.9617 138.113 44.1663 138.113 55.5227C138.113 63.5315 142.703 70.448 149.389 73.8354C150.418 74.4382 152.353 75.0691 152.904 75.2126C154.792 75.7095 157.327 76.0483 159.384 76.1992C160.145 76.2627 163.869 76.291 164.655 76.2957L164.655 76.3098L165.856 76.3098L165.856 76.3098Z" id="Вектор" fill="#332E3C" fill-rule="evenodd" stroke="none" />
  </g>
</svg>