<?xml version="1.0" encoding="utf-8"?>
<svg width="260.30084px" height="111.51343px" viewBox="0 0 260.30084 111.51343" version="1.1" xmlns:xlink="http://www.w3.org/1999/xlink" xmlns="http://www.w3.org/2000/svg">
  <g id="auto">
    <path d="M77.0731 37.0516C83.5982 18.8094 99.1219 5.25159 118.083 1.23669C146.422 -4.80237 174.674 11.8051 183.165 39.4924C180.753 40.1982 178.312 40.9139 175.844 41.6383C169.873 21.925 151.561 7.57458 129.899 7.57458C103.389 7.57458 81.8985 29.0649 81.8985 55.5746C81.8985 60.1302 82.5332 64.5377 83.7189 68.7133L75.9136 70.975C63.0798 74.7133 51.1469 78.3177 40.7186 81.4663C13.8112 89.5927 -3.07266 94.691 0.467133 91.2684C2.53937 89.2953 38.5911 76.5448 55.9181 65.1776C72.1218 54.5381 74.1113 45.2601 76.1151 39.9587L76.1812 39.6687C76.4653 38.7996 76.7443 37.9097 77.0731 37.0516L77.0731 37.0516ZM257.759 18.8984C248.855 20.4922 219.705 28.8384 183.651 39.376C184.127 40.9142 184.53 42.5103 184.872 44.1191C185.333 46.2689 185.661 48.4458 185.853 50.6373C191.982 48.1418 198.068 45.675 203.964 43.2844C240.165 28.6102 269.239 16.8242 257.759 18.8984L257.759 18.8984ZM129.899 103.575C117.477 103.575 106.158 98.8566 97.6351 91.1147C89.498 103.019 110.415 109.023 115.067 110.146L115.469 110.231L115.919 110.347C133.263 113.945 151.286 109.112 164.502 97.3212C177.718 85.5311 184.561 68.1765 182.948 50.5461C181.238 51.2476 179.525 51.9514 177.811 52.6569C177.869 53.6221 177.899 54.5948 177.899 55.5746C177.899 82.0842 156.408 103.575 129.899 103.575L129.899 103.575Z" id="Вектор" fill="#9EA3B0" fill-rule="evenodd" stroke="none" />
    <path d="M115.938 16.4811C113.856 17.2247 111.851 18.13 109.937 19.1819C110.388 19.944 110.709 20.8142 110.883 21.7743C111.422 24.6741 109.823 27.8895 107.203 29.2088C104.31 30.677 101.012 30.1038 98.8738 28.0109C94.7086 32.6958 91.5885 38.3304 89.879 44.5492C91.8667 41.2293 95.1181 38.6116 99.3217 37.4805C101.329 36.9414 104.805 36.9414 106.868 37.4989C109.787 38.2607 112.947 40.2129 114.694 42.2755C117.277 45.3612 118.486 48.6134 118.486 52.517C118.486 56.0488 117.446 59.1345 115.252 61.9966C114.695 62.74 114.267 63.3536 114.323 63.3536C114.36 63.3536 114.899 63.1117 115.476 62.8145C118.691 61.1972 122.484 57.9818 124.714 55.0083C127.037 51.9226 128.878 47.6667 129.583 43.7816C129.993 41.4954 129.973 37.5918 129.546 35.1943C128.617 29.8224 126.127 25.0642 122.205 21.1606C120.308 19.2586 118.202 17.692 115.938 16.4811L115.938 16.4811ZM128.058 22.8526C127.5 21.9786 127.036 21.2536 127.036 21.2168C127.036 21.18 127.389 21.3843 127.834 21.663C128.262 21.9234 133.764 25.3807 140.046 29.3036C146.329 33.244 151.719 36.6268 151.998 36.831L152.519 37.1843L151.348 37.5928C150.697 37.8154 149.675 38.28 149.08 38.6333C147.779 39.4144 145.901 41.3841 145.158 42.7411C144.749 43.5038 137.816 54.1169 137.538 54.3957C137.501 54.4334 136.032 53.5594 134.248 52.4628L130.995 50.4921L131.515 48.9309C134.433 40.1762 133.169 30.6036 128.058 22.8526L128.058 22.8526ZM91.9056 52.8527C91.9056 47.4808 95.6417 42.8339 100.846 41.7004C106.924 40.3802 113.02 44.3399 114.304 50.4358C115.178 54.6181 113.598 59.0231 110.271 61.6258L109.192 62.4805L109.156 69.19L109.099 75.9005L103.021 75.9566L96.9242 75.9934L96.9242 62.2394L95.3813 60.6966C93.0206 58.3359 91.9056 55.8454 91.9056 52.8527L91.9056 52.8527ZM147.258 46.8672C148.801 44.4329 152.073 42.3878 155.195 41.9048C156.143 41.7741 158.764 41.9793 159.786 42.2755C163.559 43.3906 166.645 46.5508 167.667 50.3421C168.299 52.7773 167.945 56.0856 166.812 58.3534C166.515 58.911 151.886 81.4942 151.663 81.7177C151.626 81.7739 150.958 81.2164 150.195 80.5098C147.611 78.0929 144.042 75.9558 140.548 74.7101C138.15 73.8738 135.474 73.3715 132.481 73.2418L129.823 73.1121L138.243 60.4731C142.853 53.5216 146.923 47.4064 147.258 46.8672L147.258 46.8672ZM161.367 50.6778C160.809 49.5434 160.139 48.8746 158.931 48.261C157.965 47.778 156.05 47.6482 154.954 48.0006C152.074 48.9482 150.511 52.0716 151.571 54.8408C152.686 57.8335 156.088 59.2651 158.858 57.9081C160.809 56.9421 161.869 55.2502 161.869 53.0385C161.869 51.9787 161.776 51.5325 161.367 50.6778L161.367 50.6778ZM88.4371 57.3806C88.4859 58.5194 88.5806 59.6464 88.7193 60.7597C89.6745 61.5142 90.4633 62.0537 90.6783 62.0537C90.7345 62.0537 90.4557 61.4962 90.0279 60.8264C89.3463 59.7087 88.8188 58.553 88.4371 57.3806L88.4371 57.3806ZM152.846 90.1586C146.273 94.5285 138.383 97.0746 129.899 97.0746C122.98 97.0746 116.456 95.3814 110.72 92.3868C111.872 89.2304 113.793 86.113 116.125 83.7821C119.972 79.8978 124.972 77.5555 130.288 77.1277C134.749 76.756 139.414 77.7413 143.152 79.8224C147.289 82.1451 150.752 85.8677 152.846 90.1586L152.846 90.1586ZM135.678 87.7593C137.965 85.5292 137.277 81.9412 134.359 80.7149C134.006 80.5658 133.206 80.4545 132.574 80.4545C130.029 80.4729 128.337 82.1455 128.337 84.6552C128.337 86.049 128.801 87.0721 129.805 87.9267C131.515 89.3951 134.08 89.3205 135.678 87.7593L135.678 87.7593Z" id="Вектор" fill="#332E3C" fill-rule="evenodd" stroke="none" />
  </g>
</svg>