<?xml version="1.0" encoding="utf-8"?>
<svg width="356.15674px" height="218px" viewBox="0 0 356.15674 218" version="1.1" xmlns:xlink="http://www.w3.org/1999/xlink" xmlns="http://www.w3.org/2000/svg">
  <defs>
    <linearGradient gradientUnits="userSpaceOnUse" x1="199.15431" y1="-123.24474" x2="-31.133602" y2="150.83174" id="gradient_1">
      <stop offset="0%" stop-color="#EDEAE8" />
      <stop offset="0%" stop-color="#E6E3E0" />
      <stop offset="4%" stop-color="#D7D5D3" />
      <stop offset="11%" stop-color="#B0B1AF" />
      <stop offset="21%" stop-color="#727777" />
      <stop offset="26%" stop-color="#4A5253" />
      <stop offset="27.000002%" stop-color="#4E5657" />
      <stop offset="38%" stop-color="#909596" />
      <stop offset="47%" stop-color="#C0C2C3" />
      <stop offset="52.999996%" stop-color="#DEDEDF" />
      <stop offset="57%" stop-color="#E9E9EA" />
      <stop offset="63%" stop-color="#DFE0E1" />
      <stop offset="74%" stop-color="#C5C7CA" />
      <stop offset="87%" stop-color="#9B9FA3" />
      <stop offset="88%" stop-color="#989CA1" />
      <stop offset="100%" stop-color="#D8D9D9" />
      <stop offset="100%" stop-color="#B0B1B2" />
    </linearGradient>
    <linearGradient gradientUnits="userSpaceOnUse" x1="28.5341" y1="-38.62986" x2="185.73363" y2="115.950035" id="gradient_2">
      <stop offset="0%" stop-color="#EDEAE8" />
      <stop offset="0%" stop-color="#E6E3E0" />
      <stop offset="4%" stop-color="#D7D5D3" />
      <stop offset="11%" stop-color="#B0B1AF" />
      <stop offset="21%" stop-color="#727777" />
      <stop offset="26%" stop-color="#4A5253" />
      <stop offset="27.000002%" stop-color="#4E5657" />
      <stop offset="38%" stop-color="#909596" />
      <stop offset="47%" stop-color="#C0C2C3" />
      <stop offset="52.999996%" stop-color="#DEDEDF" />
      <stop offset="57%" stop-color="#E9E9EA" />
      <stop offset="63%" stop-color="#DFE0E1" />
      <stop offset="74%" stop-color="#C5C7CA" />
      <stop offset="87%" stop-color="#9B9FA3" />
      <stop offset="88%" stop-color="#989CA1" />
      <stop offset="100%" stop-color="#D8D9D9" />
      <stop offset="100%" stop-color="#B0B1B2" />
    </linearGradient>
    <linearGradient gradientUnits="userSpaceOnUse" x1="-1.4911888" y1="-59.68789" x2="155.70831" y2="94.912155" id="gradient_3">
      <stop offset="0%" stop-color="#EDEAE8" />
      <stop offset="0%" stop-color="#E6E3E0" />
      <stop offset="4%" stop-color="#D7D5D3" />
      <stop offset="11%" stop-color="#B0B1AF" />
      <stop offset="21%" stop-color="#727777" />
      <stop offset="26%" stop-color="#4A5253" />
      <stop offset="27.000002%" stop-color="#4E5657" />
      <stop offset="38%" stop-color="#909596" />
      <stop offset="47%" stop-color="#C0C2C3" />
      <stop offset="52.999996%" stop-color="#DEDEDF" />
      <stop offset="57%" stop-color="#E9E9EA" />
      <stop offset="63%" stop-color="#DFE0E1" />
      <stop offset="74%" stop-color="#C5C7CA" />
      <stop offset="87%" stop-color="#9B9FA3" />
      <stop offset="88%" stop-color="#989CA1" />
      <stop offset="100%" stop-color="#D8D9D9" />
      <stop offset="100%" stop-color="#B0B1B2" />
    </linearGradient>
    <linearGradient gradientUnits="userSpaceOnUse" x1="235.08391" y1="-144.50429" x2="4.7959857" y2="129.57225" id="gradient_4">
      <stop offset="0%" stop-color="#EDEAE8" />
      <stop offset="0%" stop-color="#E6E3E0" />
      <stop offset="4%" stop-color="#D7D5D3" />
      <stop offset="11%" stop-color="#B0B1AF" />
      <stop offset="21%" stop-color="#727777" />
      <stop offset="26%" stop-color="#4A5253" />
      <stop offset="27.000002%" stop-color="#4E5657" />
      <stop offset="38%" stop-color="#909596" />
      <stop offset="47%" stop-color="#C0C2C3" />
      <stop offset="52.999996%" stop-color="#DEDEDF" />
      <stop offset="57%" stop-color="#E9E9EA" />
      <stop offset="63%" stop-color="#DFE0E1" />
      <stop offset="74%" stop-color="#C5C7CA" />
      <stop offset="87%" stop-color="#9B9FA3" />
      <stop offset="88%" stop-color="#989CA1" />
      <stop offset="100%" stop-color="#D8D9D9" />
      <stop offset="100%" stop-color="#B0B1B2" />
    </linearGradient>
    <linearGradient gradientUnits="userSpaceOnUse" x1="226.45918" y1="-203.44655" x2="-3.8287282" y2="70.62997" id="gradient_5">
      <stop offset="0%" stop-color="#EDEAE8" />
      <stop offset="0%" stop-color="#E6E3E0" />
      <stop offset="4%" stop-color="#D7D5D3" />
      <stop offset="11%" stop-color="#B0B1AF" />
      <stop offset="21%" stop-color="#727777" />
      <stop offset="26%" stop-color="#4A5253" />
      <stop offset="27.000002%" stop-color="#4E5657" />
      <stop offset="38%" stop-color="#909596" />
      <stop offset="47%" stop-color="#C0C2C3" />
      <stop offset="52.999996%" stop-color="#DEDEDF" />
      <stop offset="57%" stop-color="#E9E9EA" />
      <stop offset="63%" stop-color="#DFE0E1" />
      <stop offset="74%" stop-color="#C5C7CA" />
      <stop offset="87%" stop-color="#9B9FA3" />
      <stop offset="88%" stop-color="#989CA1" />
      <stop offset="100%" stop-color="#D8D9D9" />
      <stop offset="100%" stop-color="#B0B1B2" />
    </linearGradient>
    <linearGradient gradientUnits="userSpaceOnUse" x1="-32.503883" y1="-79.68788" x2="124.69562" y2="74.912094" id="gradient_6">
      <stop offset="0%" stop-color="#EDEAE8" />
      <stop offset="0%" stop-color="#E6E3E0" />
      <stop offset="4%" stop-color="#D7D5D3" />
      <stop offset="11%" stop-color="#B0B1AF" />
      <stop offset="21%" stop-color="#727777" />
      <stop offset="26%" stop-color="#4A5253" />
      <stop offset="27.000002%" stop-color="#4E5657" />
      <stop offset="38%" stop-color="#909596" />
      <stop offset="47%" stop-color="#C0C2C3" />
      <stop offset="52.999996%" stop-color="#DEDEDF" />
      <stop offset="57%" stop-color="#E9E9EA" />
      <stop offset="63%" stop-color="#DFE0E1" />
      <stop offset="74%" stop-color="#C5C7CA" />
      <stop offset="87%" stop-color="#9B9FA3" />
      <stop offset="88%" stop-color="#989CA1" />
      <stop offset="100%" stop-color="#D8D9D9" />
      <stop offset="100%" stop-color="#B0B1B2" />
    </linearGradient>
  </defs>
  <g id="erent_logo">
    <g id="Группа-2" transform="translate(0 153.66492)">
      <path d="M149.153 0.00169725L101.575 0.00169725L101.575 35.5334L112.658 35.5334L112.658 24.2335L127.533 24.2335L144.49 35.4868L161.463 35.4868L142.905 23.7672L149.728 23.7672C151.041 23.7639 152.349 23.6179 153.63 23.332C154.672 23.1028 155.652 22.6522 156.505 22.0109C157.296 21.3947 157.917 20.5869 158.308 19.6638C158.746 18.5458 158.958 17.3516 158.93 16.1511L158.93 7.81992C158.98 6.47422 158.741 5.13337 158.23 3.88749C157.803 2.92867 157.12 2.10593 156.256 1.50939C155.321 0.885953 154.26 0.477237 153.148 0.312559C151.828 0.0892264 150.491 -0.0148157 149.153 0.00169725ZM2.37817 35.5334L2.37817 0.00170898L52.5671 0.00170898L52.5671 8.75252L13.4449 8.75252L13.4449 13.5087L37.3814 13.5087L37.3814 21.4979L13.4449 21.4979L13.4449 26.7826L53.3287 26.7826L53.3287 35.5334L2.37817 35.5334ZM171.317 35.5334L171.317 0.00170898L221.506 0.00170898L221.506 8.75252L182.384 8.75252L182.384 13.5087L206.32 13.5087L206.32 21.4979L182.384 21.4979L182.384 26.7826L222.267 26.7826L222.267 35.5334L171.317 35.5334ZM233.272 35.5334L233.272 0.00170898L241.557 0.00170898L280.321 22.2285L280.321 0.00170898L290.595 0.00170898L290.595 35.5334L282.295 35.5334L243.562 13.3533L243.562 35.5334L233.272 35.5334ZM321.868 35.5334L321.868 9.11002L298.647 9.11002L298.647 0.00170898L356.157 0.00170898L356.157 9.15665L332.842 9.15665L332.842 35.5801L321.868 35.5334ZM146.635 15.2184C146.341 15.2986 146.038 15.3353 145.733 15.3272L112.657 15.3272L112.657 8.98563L145.733 8.98563C146.038 8.98263 146.342 9.02452 146.635 9.10997C146.88 9.17902 147.104 9.30711 147.288 9.483C147.474 9.64232 147.609 9.85322 147.676 10.0892C147.756 10.367 147.792 10.6552 147.785 10.9441L147.785 13.3533C147.793 13.6626 147.756 13.9714 147.676 14.2703C147.609 14.5063 147.474 14.7172 147.288 14.8765C147.099 15.0388 146.876 15.1557 146.635 15.2184ZM62.2349 24.3109L62.2349 15.9642L89.6219 15.9642L89.6219 24.3109L62.2349 24.3109Z" id="Фигура-Объединение" fill="#1A1B1B" fill-rule="evenodd" stroke="none" />
      <path d="M343.784 45.8852C343.711 45.6434 343.674 45.3919 343.675 45.1392L341.795 45.1392L341.732 45.1392C341.745 45.6661 341.828 46.189 341.981 46.6935C342.101 47.0882 342.333 47.4394 342.649 47.7038C343.011 47.974 343.432 48.155 343.877 48.2323C345.107 48.4395 346.363 48.4395 347.592 48.2323C348.032 48.1516 348.446 47.9708 348.805 47.7038C349.122 47.4431 349.35 47.09 349.457 46.6935C349.602 46.1884 349.67 45.6645 349.659 45.1392L347.779 45.1392C347.783 45.3934 347.741 45.6462 347.654 45.8852C347.591 46.0762 347.465 46.2404 347.297 46.3515C347.102 46.471 346.885 46.5503 346.66 46.5847C346.357 46.6384 346.05 46.6644 345.743 46.6624C345.425 46.6643 345.108 46.6383 344.794 46.5847C344.569 46.5476 344.353 46.4685 344.157 46.3515C343.985 46.2412 343.854 46.0774 343.784 45.8852ZM62.3286 59.4853C62.5815 59.6597 62.867 59.7813 63.1679 59.8428C63.5321 59.9081 63.9016 59.9393 64.2715 59.9361L71.3903 59.9361C71.6976 59.9354 72.0043 59.9094 72.3073 59.8584C72.5884 59.8028 72.8604 59.7087 73.1156 59.5786C73.3608 59.4529 73.5776 59.2783 73.7529 59.0657C73.9423 58.8331 74.08 58.5629 74.157 58.273L74.157 59.8273L77.39 59.8273L77.39 51.4651C77.4083 51.0815 77.3392 50.6989 77.1879 50.346C77.0757 50.0707 76.8869 49.8333 76.6439 49.6621C76.3933 49.4865 76.1065 49.3696 75.8045 49.3201C75.4423 49.2942 75.0787 49.2942 74.7165 49.3201L64.4581 49.3201C64.0932 49.3169 63.7289 49.3481 63.37 49.4134C63.0711 49.4646 62.7857 49.5756 62.5307 49.7398C62.2933 49.9104 62.1055 50.141 61.9867 50.4081C61.8395 50.7513 61.7704 51.123 61.7846 51.4962L61.7846 52.0091L65.0176 52.5997L65.0176 51.7138L74.157 51.7138L74.157 53.7033L64.5824 53.7033C64.2097 53.6791 63.8359 53.6791 63.4633 53.7033C63.1314 53.7502 62.8104 53.8555 62.5151 54.0142C62.2384 54.1687 62.0078 54.394 61.8468 54.667C61.665 54.9997 61.5789 55.3763 61.5981 55.755L61.5981 57.6979C61.5861 58.0795 61.6495 58.4598 61.7846 58.817C61.9041 59.0837 62.0917 59.3142 62.3286 59.4853ZM214.651 59.4853C214.904 59.6597 215.19 59.7813 215.49 59.8428C215.855 59.9081 216.224 59.9393 216.594 59.9361L223.713 59.9361C224.025 59.9347 224.337 59.9087 224.645 59.8584C224.921 59.8005 225.187 59.7065 225.438 59.5786C225.683 59.4529 225.9 59.2783 226.075 59.0657C226.265 58.8331 226.403 58.5629 226.479 58.273L226.479 59.8273L229.712 59.8273L229.712 51.4651C229.731 51.0815 229.662 50.6989 229.51 50.346C229.398 50.0707 229.209 49.8333 228.966 49.6621C228.716 49.4865 228.429 49.3696 228.127 49.3201C227.765 49.2942 227.401 49.2942 227.039 49.3201L216.781 49.3201C216.416 49.3169 216.051 49.3481 215.692 49.4134C215.394 49.4646 215.108 49.5756 214.853 49.7398C214.616 49.9104 214.428 50.141 214.309 50.4081C214.162 50.7513 214.093 51.123 214.107 51.4962L214.107 52.0091L217.34 52.5997L217.34 51.7138L226.479 51.7138L226.479 53.7033L216.92 53.7033C216.543 53.6785 216.164 53.6785 215.786 53.7033C215.454 53.7502 215.133 53.8555 214.838 54.0142C214.561 54.1687 214.33 54.394 214.169 54.667C213.987 54.9997 213.901 55.3763 213.921 55.755L213.921 57.6979C213.909 58.0795 213.972 58.4598 214.107 58.817C214.227 59.0837 214.414 59.3142 214.651 59.4853ZM316.273 50.548C316.16 50.8725 316.107 51.2149 316.117 51.5583L316.117 57.5891C316.096 57.9511 316.138 58.314 316.242 58.6615C316.333 58.9481 316.506 59.2018 316.739 59.3921C316.989 59.5905 317.282 59.7288 317.594 59.7962C318.006 59.8966 318.429 59.9436 318.853 59.9361L329.951 59.9361C330.38 59.9436 330.808 59.8966 331.225 59.7962C331.536 59.7253 331.828 59.5874 332.08 59.3921C332.301 59.194 332.467 58.9424 332.562 58.6615C332.676 58.3159 332.729 57.9529 332.718 57.5891L332.718 51.5583C332.778 50.9179 332.537 50.2859 332.065 49.8486C331.439 49.4401 330.695 49.2539 329.951 49.3201L318.884 49.3201C318.466 49.3158 318.049 49.3575 317.641 49.4444C317.325 49.5151 317.028 49.6529 316.77 49.8486C316.549 50.0365 316.378 50.277 316.273 50.548ZM43.6145 49.4131L40.366 49.4131L40.366 64.3346L43.6145 64.3346L43.6144 58.8012C43.7795 59.196 44.1 59.5052 44.5005 59.6561C45.035 59.863 45.6063 59.9582 46.1791 59.9359L54.3548 59.9359C54.7777 59.9392 55.1998 59.8976 55.6138 59.8115C55.9225 59.7342 56.213 59.5969 56.4687 59.4074C56.6968 59.2255 56.8692 58.9831 56.9661 58.7079C57.0791 58.3835 57.1318 58.0411 57.1215 57.6976L57.1215 51.6513C57.1311 51.2927 57.0785 50.9351 56.9661 50.5944C56.8788 50.3098 56.7115 50.0562 56.4842 49.8639C56.2276 49.6631 55.9307 49.52 55.6138 49.4442C55.1999 49.3573 54.7778 49.3156 54.3548 49.3198L46.1791 49.3198C45.6063 49.2975 45.035 49.3927 44.5005 49.5996C44.097 49.754 43.776 50.0694 43.6145 50.47L43.6145 49.4131ZM237.749 49.4136L234.516 49.4136L234.516 64.3351L237.749 64.3351L237.749 58.8017C237.923 59.1905 238.24 59.4968 238.635 59.6566C239.175 59.8623 239.751 59.9574 240.329 59.9364L248.505 59.9364C248.928 59.9398 249.35 59.8981 249.764 59.812C250.072 59.7315 250.361 59.5944 250.619 59.4079C250.84 59.2199 251.011 58.9795 251.116 58.7085C251.229 58.384 251.282 58.0416 251.272 57.6982L251.272 51.6519C251.281 51.2932 251.229 50.9356 251.116 50.5949C251.025 50.3084 250.852 50.0546 250.619 49.8644C250.368 49.664 250.076 49.5207 249.764 49.4447C249.35 49.3587 248.928 49.317 248.505 49.3204L240.329 49.3204C239.752 49.2994 239.175 49.3945 238.635 49.6002C238.239 49.7663 237.922 50.0778 237.749 50.4706L237.749 49.4136ZM184.591 50.7655C184.458 51.1557 184.395 51.566 184.404 51.9779L184.404 57.1227C184.404 57.5568 184.477 57.9879 184.622 58.3972C184.746 58.7345 184.955 59.0342 185.228 59.2677C185.542 59.5174 185.909 59.6928 186.3 59.7806C186.812 59.8845 187.333 59.9365 187.855 59.936L197.181 59.936C197.703 59.944 198.224 59.8919 198.735 59.7806C199.134 59.7029 199.51 59.5384 199.838 59.2987C200.121 59.0803 200.341 58.7906 200.476 58.4594C200.615 58.0544 200.683 57.6285 200.678 57.2004L200.678 57.0294L197.46 56.4699L197.46 57.5268L187.622 57.5268L187.622 55.6772L200.678 55.6772L200.678 51.9779C200.683 51.57 200.615 51.1645 200.476 50.7811C200.343 50.453 200.129 50.1642 199.854 49.9417C199.534 49.7082 199.169 49.5441 198.782 49.4599C198.27 49.3592 197.749 49.3123 197.227 49.32L187.808 49.32C187.286 49.3063 186.763 49.3585 186.254 49.4754C185.873 49.5548 185.512 49.7137 185.197 49.9417C184.931 50.1634 184.723 50.4461 184.591 50.7655ZM122.014 50.7659C121.876 51.1551 121.808 51.5655 121.812 51.9783L121.812 57.1231C121.811 57.5573 121.884 57.9885 122.03 58.3976C122.148 58.738 122.357 59.0392 122.636 59.2681C122.95 59.5178 123.317 59.6932 123.708 59.781C124.22 59.8862 124.74 59.9382 125.263 59.9364L134.588 59.9364C135.111 59.9444 135.632 59.8923 136.143 59.781C136.542 59.7033 136.918 59.5388 137.246 59.2992C137.529 59.0843 137.745 58.7931 137.868 58.4598C138.014 58.0567 138.083 57.6295 138.07 57.2008L138.07 57.0298L134.868 56.4703L134.868 57.5272L125.029 57.5272L125.029 55.6776L138.07 55.6776L138.07 51.9783C138.08 51.5714 138.017 51.166 137.884 50.7815C137.751 50.4534 137.537 50.1646 137.262 49.9421C136.942 49.7086 136.577 49.5445 136.189 49.4603C135.678 49.3596 135.157 49.3127 134.635 49.3204L125.216 49.3204C124.693 49.3094 124.171 49.3616 123.662 49.4758C123.285 49.555 122.93 49.714 122.62 49.9421C122.346 50.1555 122.136 50.4406 122.014 50.7659ZM256.043 50.7659C255.905 51.1551 255.837 51.5655 255.841 51.9783L255.841 57.1231C255.84 57.5573 255.913 57.9885 256.059 58.3976C256.171 58.7407 256.382 59.0433 256.665 59.2681C256.979 59.5178 257.346 59.6932 257.737 59.781C258.249 59.8862 258.77 59.9382 259.292 59.9364L268.618 59.9364C269.14 59.9436 269.661 59.8915 270.172 59.781C270.571 59.7034 270.947 59.5388 271.275 59.2992C271.558 59.0843 271.774 58.7931 271.897 58.4598C272.044 58.0567 272.112 57.6295 272.099 57.2008L272.099 57.0298L268.897 56.4703L268.897 57.5272L259.058 57.5272L259.058 55.6776L272.099 55.6776L272.099 51.9783C272.109 51.5714 272.046 51.166 271.913 50.7815C271.78 50.4534 271.566 50.1646 271.291 49.9421C270.971 49.7086 270.606 49.5445 270.219 49.4603C269.707 49.3596 269.186 49.3127 268.664 49.3204L259.245 49.3204C258.723 49.3094 258.201 49.3616 257.691 49.4759C257.314 49.555 256.959 49.714 256.649 49.9421C256.375 50.1555 256.165 50.4406 256.043 50.7659ZM297.093 57.1229L295.134 57.1229L295.134 62.3143L298.041 62.3143L298.196 59.8274L310.304 59.8274L310.46 62.3143L313.289 62.3143L313.289 57.1229L311.284 57.1229L306.092 49.3513L302.16 49.3513L297.093 57.1229ZM95.4667 49.4133L82.1929 49.4133L82.1929 59.8273L95.6066 59.7806C96.1284 59.7929 96.6498 59.746 97.1609 59.6407C97.5509 59.5672 97.9213 59.4137 98.249 59.19C98.5433 58.9888 98.775 58.7086 98.9173 58.3817C99.0824 57.9994 99.1619 57.5857 99.1505 57.1694L99.1505 56.8896C99.1595 56.3334 98.9907 55.7888 98.6686 55.3353C98.3443 54.9162 97.8909 54.6157 97.3785 54.4804C97.8184 54.3428 98.2008 54.0643 98.4666 53.6877C98.7546 53.2742 98.8968 52.7765 98.8707 52.2733L98.8707 51.9935C98.8794 51.589 98.8054 51.187 98.6531 50.8122C98.5062 50.4923 98.2752 50.2183 97.9847 50.0195C97.6638 49.7907 97.2985 49.6318 96.9122 49.5532C96.4369 49.4543 95.9522 49.4074 95.4667 49.4133ZM0.699438 64.335L0.217604 61.6461L5.58 61.6461L7.24312 59.2835L0 49.4136L3.9946 49.4136L9.09276 56.5634L14.2065 49.4136L17.7814 49.4136L8.65755 62.1279C8.42944 62.4736 8.1748 62.801 7.89593 63.1071C7.68275 63.3666 7.43116 63.592 7.14986 63.7755C6.86694 63.9498 6.55704 64.0758 6.23282 64.1485C5.79047 64.2612 5.33687 64.3237 4.88056 64.335L0.699438 64.335ZM20.1443 59.8275L20.1443 49.4136L35.4699 49.4136L35.4699 59.8275L32.2369 59.8275L32.2369 52.0559L23.3928 52.0559L23.3928 59.8275L20.1443 59.8275ZM101.606 59.8275L108.507 49.4136L112.206 49.4136L119.279 59.8275L115.408 59.8275L110.264 52.0559L105.243 59.8275L101.606 59.8275ZM142.811 59.8275L142.811 49.4136L146.044 49.4136L146.044 53.0662L155.199 53.0662L155.199 49.4136L158.447 49.4136L158.447 59.8275L155.199 59.8275L155.199 55.7707L146.044 55.7707L146.044 59.8275L142.811 59.8275ZM163.421 59.8275L163.421 49.4136L166.53 49.4136L166.53 56.3458L176.912 49.4136L179.695 49.4136L179.695 59.8275L176.462 59.8275L176.462 52.9108L166.079 59.8275L163.421 59.8275ZM276.886 59.8275L276.886 49.4136L280.119 49.4136L280.119 53.0662L289.274 53.0662L289.274 49.4136L292.429 49.4136L292.429 59.8275L289.181 59.8275L289.181 55.7707L280.026 55.7707L280.026 59.8275L276.886 59.8275ZM340.753 49.4136L337.505 49.4136L337.505 59.8275L340.303 59.8275L350.67 52.9108L350.67 59.8275L353.919 59.8275L353.919 49.4136L351.121 49.4136L340.753 56.3458L340.753 49.4136ZM197.445 51.7292L197.445 53.4545L187.606 53.4545L187.606 51.7292L197.445 51.7292ZM134.868 51.7295L134.868 53.4548L125.03 53.4548L125.03 51.7295L134.868 51.7295ZM268.897 51.7295L268.897 53.4548L259.059 53.4548L259.059 51.7295L268.897 51.7295ZM304.056 51.7762L307.584 57.2164L300.621 57.2164L304.056 51.7762ZM95.063 53.4545L85.4263 53.4545L85.4263 51.8069L94.6589 51.8069C94.7879 51.7906 94.9185 51.7906 95.0475 51.8069C95.1605 51.8191 95.2681 51.8621 95.3584 51.9312C95.4373 51.9921 95.5056 52.0656 95.5604 52.1488C95.5869 52.2613 95.5869 52.3783 95.5604 52.4908L95.5604 52.755C95.5869 52.8675 95.5869 52.9845 95.5604 53.097C95.5056 53.1847 95.4374 53.2634 95.3584 53.3301C95.2688 53.3901 95.1686 53.4324 95.063 53.4545ZM53.889 52.0244L53.889 57.2936L43.615 57.2936L43.615 52.0244L53.889 52.0244ZM248.039 52.0247L248.039 57.2938L237.75 57.2938L237.75 52.0247L248.039 52.0247ZM329.485 52.0247L329.485 57.2316L319.351 57.2316L319.351 52.0247L329.485 52.0247ZM95.576 57.4023C95.4751 57.4621 95.3647 57.5041 95.2496 57.5266C95.1153 57.5427 94.9797 57.5427 94.8454 57.5266L85.4263 57.5266L85.4263 55.7391L94.8455 55.7391C94.9797 55.723 95.1153 55.723 95.2496 55.7391C95.3656 55.7667 95.476 55.814 95.576 55.879C95.6678 55.9429 95.7425 56.0283 95.7936 56.1277C95.8215 56.2505 95.8215 56.378 95.7936 56.5008L95.7936 56.765C95.82 56.8932 95.82 57.0254 95.7936 57.1536C95.7425 57.253 95.6678 57.3384 95.576 57.4023ZM74.1882 55.8169L74.1882 57.651L64.8623 57.651L64.8623 55.8169L74.1882 55.8169ZM226.511 55.8169L226.511 57.651L217.185 57.651L217.185 55.8169L226.511 55.8169Z" id="Фигура-Объединение-2" fill="#787878" fill-rule="evenodd" stroke="none" />
    </g>
    <g id="Группа" transform="translate(95.07153 0)">
      <path d="M94.4285 11.6875L39.4561 11.6875C17.189 11.6875 5.48113 4.89655 0 0.140869C0.141058 11.9092 16.9673 21.4407 28.7558 21.4407L78.3479 21.4407C113.995 21.4407 134.147 26.3374 140.131 35.1838C142.635 39.0998 143.369 43.8906 142.152 48.3763C140.936 52.862 137.882 56.6258 133.744 58.7406C165.703 51.607 161.21 11.6875 94.4285 11.6875L94.4285 11.6875Z" id="Фигура" fill="url(#gradient_1)" fill-rule="evenodd" stroke="none" />
      <path d="M161.814 31.8792C154.298 0 99.8089 0 78.3479 0L0 0C0 0 0 0.100756 0 0.141058C5.48113 4.89674 17.189 11.6877 39.4561 11.6877L94.4285 11.6877C161.21 11.6877 165.703 51.6072 133.744 58.7408C150.207 59.708 165.24 49.9145 161.814 31.8792L161.814 31.8792Z" id="Фигура" fill="url(#gradient_2)" fill-rule="evenodd" stroke="none" />
      <path d="M55.7785 63.3956L86.8114 63.3956C101.784 63.3956 125.099 69.1186 139.607 90.6199C150.912 107.486 158.207 118.832 165.945 124.615C165.945 124.313 161.189 103.134 155.023 91.8895C144.726 73.0884 122.519 51.587 74.4184 51.587L0 51.587C14.6902 66.9422 38.6298 63.3956 55.7785 63.3956L55.7785 63.3956Z" id="Фигура" fill="url(#gradient_3)" fill-rule="evenodd" stroke="none" />
      <path d="M139.608 90.6804C125.179 69.1186 101.784 63.3956 86.8114 63.3956L55.7785 63.3956C38.6299 63.3956 14.6902 66.9422 0 51.6072C0 63.4359 16.927 73.0279 28.7558 73.0279L74.3378 73.0279C110.832 73.0279 126.509 88.6653 137.552 102.368C148.595 116.071 158.328 123.144 165.965 124.655L165.965 124.655L165.965 124.655C158.207 118.731 150.912 107.486 139.608 90.6804L139.608 90.6804Z" id="Фигура" fill="url(#gradient_4)" fill-rule="evenodd" stroke="none" />
      <path d="M89.5721 115.386L46.7911 115.386C19.8489 115.386 13.6021 115.386 0 103.295C0 115.124 16.927 124.716 28.7558 124.716L89.7333 124.716C97.4915 124.635 98.62 115.386 89.5721 115.386L89.5721 115.386Z" id="Фигура" fill="url(#gradient_5)" fill-rule="evenodd" stroke="none" />
      <path d="M92.8366 103.214L0 103.214C13.6021 115.305 19.8489 115.305 46.7911 115.305L89.5721 115.305C98.62 115.305 97.4915 124.554 89.7333 124.554L92.8366 124.554C96.7738 124.725 100.487 122.722 102.507 119.338C104.527 115.954 104.527 111.734 102.507 108.35C100.487 104.966 96.7739 102.963 92.8366 103.134L92.8366 103.214Z" id="Фигура" fill="url(#gradient_6)" fill-rule="evenodd" stroke="none" />
    </g>
  </g>
</svg>