<?xml version="1.0" encoding="utf-8"?>
<svg width="2289.87px" height="848.43px" viewBox="0 0 2289.87 848.43" version="1.1" xmlns:xlink="http://www.w3.org/1999/xlink" xmlns="http://www.w3.org/2000/svg">
  <g id="Group" transform="translate(0.5 0.5)" opacity="0.17">
    <path d="M919.408 469.211C911.594 430.56 1006.01 378.858 1130.29 353.731C1254.56 328.604 1361.65 339.568 1369.46 378.219C1377.28 416.87 1282.86 468.572 1158.58 493.699C1034.31 518.826 927.223 507.862 919.408 469.211ZM899.099 473.317C890.58 431.18 993.514 374.813 1129.01 347.419C1264.5 320.024 1381.25 331.976 1389.77 374.113C1398.29 416.25 1295.36 472.617 1159.86 500.011C1024.37 527.406 907.618 515.454 899.099 473.317ZM878.77 477.427C869.545 431.798 981.009 370.761 1127.73 341.097C1274.45 311.432 1400.87 324.374 1410.1 370.003C1419.32 415.632 1307.86 476.669 1161.14 506.333C1014.42 535.998 887.996 523.056 878.77 477.427ZM858.442 481.537C848.511 432.417 968.503 366.709 1126.45 334.775C1284.4 302.84 1420.5 316.772 1430.43 365.893C1440.36 415.013 1320.37 480.721 1162.42 512.655C1004.47 544.59 868.373 530.658 858.442 481.537ZM838.093 485.651C827.455 433.034 955.985 362.649 1125.17 328.443C1294.36 294.236 1440.14 309.161 1450.78 361.779C1461.41 414.396 1332.88 484.781 1163.7 518.987C994.509 553.194 848.732 538.269 838.093 485.651ZM817.745 489.765C806.4 433.651 943.467 358.589 1123.89 322.111C1304.32 285.632 1459.78 301.55 1471.12 357.665C1482.47 413.779 1345.4 488.841 1164.98 525.319C984.551 561.798 829.09 545.88 817.745 489.765ZM797.387 493.881C785.335 434.27 930.943 354.531 1122.61 315.779C1314.28 277.027 1479.43 293.937 1491.48 353.549C1503.54 413.16 1357.93 492.899 1166.26 531.651C974.588 570.403 809.439 553.493 797.387 493.881ZM777.029 497.997C764.27 434.889 918.42 350.472 1121.33 309.447C1324.25 268.422 1499.08 286.324 1511.84 349.433C1524.6 412.541 1370.45 496.958 1167.54 537.983C964.625 579.008 789.788 561.106 777.029 497.997ZM756.661 502.115C743.195 435.51 905.89 346.414 1120.05 303.115C1334.21 259.816 1518.74 278.709 1532.21 345.315C1545.68 411.92 1382.98 501.016 1168.82 544.315C954.656 587.614 770.127 568.721 756.661 502.115ZM736.293 506.233C722.12 436.131 893.361 342.357 1118.77 296.783C1344.18 251.21 1538.4 271.094 1552.58 341.197C1566.75 411.299 1395.51 505.073 1170.1 550.647C944.688 596.22 750.467 576.336 736.293 506.233ZM715.916 510.353C701.035 436.754 880.827 338.3 1117.49 290.451C1354.16 242.602 1558.07 263.477 1572.95 337.077C1587.83 410.676 1408.04 509.13 1171.38 556.979C934.714 604.828 730.796 583.953 715.916 510.353ZM695.548 514.471C679.959 437.369 868.296 334.233 1116.21 284.11C1364.12 233.986 1577.73 255.857 1593.32 332.959C1608.91 410.061 1420.57 513.197 1172.66 563.32C924.747 613.443 711.136 591.573 695.548 514.471ZM675.17 518.591C658.874 437.992 855.761 330.176 1114.93 277.778C1374.1 225.379 1597.4 248.24 1613.7 328.839C1630 409.438 1433.11 517.253 1173.94 569.652C914.773 622.051 691.465 599.19 675.17 518.591ZM654.792 522.711C637.789 438.61 843.225 326.11 1113.65 271.436C1384.07 216.762 1617.07 240.618 1634.08 324.719C1651.08 408.82 1445.65 521.32 1175.22 575.994C904.801 630.668 671.796 606.812 654.792 522.711ZM634.405 526.833C616.693 439.229 830.683 322.045 1112.36 265.094C1394.05 208.144 1636.75 232.993 1654.47 320.597C1672.18 408.201 1458.19 525.385 1176.5 582.335C894.823 639.286 652.116 614.437 634.405 526.833ZM614.027 530.953C595.608 439.852 818.149 317.988 1111.08 258.763C1404.02 199.537 1656.42 225.376 1674.84 316.477C1693.26 407.578 1470.72 529.441 1177.79 588.667C884.849 647.893 632.446 622.054 614.027 530.953ZM593.649 535.073C574.522 440.47 805.612 313.922 1109.8 252.421C1413.99 190.92 1676.09 217.754 1695.22 312.357C1714.35 406.96 1483.26 533.508 1179.07 595.009C874.877 656.51 612.776 629.676 593.649 535.073ZM573.262 539.195C553.427 441.089 793.07 309.857 1108.52 246.079C1423.97 182.301 1695.77 210.129 1715.61 308.235C1735.44 406.341 1495.8 537.573 1180.35 601.351C864.899 665.129 593.097 637.3 573.262 539.195ZM552.874 543.317C532.331 441.709 780.528 305.792 1107.24 239.738C1433.95 173.683 1715.45 202.505 1736 304.113C1756.54 405.721 1508.34 541.638 1181.63 607.692C854.922 673.747 573.418 644.925 552.874 543.317ZM532.487 547.439C511.237 442.334 767.989 301.736 1105.96 233.406C1443.93 165.075 1735.13 194.886 1756.38 299.991C1777.63 405.096 1520.88 545.693 1182.91 614.024C844.942 682.355 553.737 652.544 532.487 547.439ZM512.1 551.561C490.141 442.953 755.447 297.671 1104.68 227.064C1453.91 156.457 1754.81 187.262 1776.77 295.869C1798.73 404.477 1533.42 549.759 1184.19 620.366C834.965 690.973 534.058 660.168 512.1 551.561ZM491.712 555.683C469.046 443.573 742.905 293.606 1103.39 220.722C1463.88 147.838 1774.49 179.637 1797.16 291.747C1819.82 403.857 1545.96 553.824 1185.48 626.708C824.987 699.591 514.378 667.792 491.712 555.683ZM471.325 559.805C447.95 444.192 730.363 289.541 1102.11 214.381C1473.86 139.22 1794.17 172.013 1817.55 287.625C1840.92 403.237 1558.51 557.889 1186.76 633.049C815.01 708.21 494.699 675.417 471.325 559.805ZM450.937 563.927C426.854 444.812 717.821 285.476 1100.83 208.039C1483.84 130.602 1813.85 164.389 1837.93 283.503C1862.02 402.618 1571.05 561.954 1188.04 639.391C805.032 716.828 475.02 683.041 450.937 563.927ZM430.55 568.049C405.759 445.432 705.279 281.41 1099.55 201.697C1493.82 121.984 1833.53 156.764 1858.32 279.381C1883.11 401.998 1583.59 566.019 1189.32 645.733C795.055 725.446 455.34 690.665 430.55 568.049ZM410.162 572.17C384.663 446.051 692.738 277.345 1098.27 195.356C1503.79 113.366 1853.21 149.14 1878.71 275.259C1904.21 401.379 1596.13 570.085 1190.6 652.074C785.077 734.064 435.661 698.29 410.162 572.17ZM389.775 576.292C363.568 446.671 680.196 273.28 1096.98 189.014C1513.77 104.748 1872.89 141.516 1899.1 271.137C1925.3 400.759 1608.67 574.15 1191.89 658.416C775.1 742.682 415.982 705.914 389.775 576.292ZM369.377 580.416C342.462 447.292 667.648 269.216 1095.7 182.672C1523.75 96.1284 1892.58 133.889 1919.49 267.014C1946.41 400.138 1621.22 578.214 1193.17 664.758C765.116 751.302 396.292 713.541 369.377 580.416ZM348.99 584.538C321.367 447.912 655.106 265.151 1094.42 176.33C1533.73 87.5102 1912.26 126.265 1939.88 262.892C1967.5 399.518 1633.76 582.279 1194.45 671.099C755.139 759.92 376.613 721.165 348.99 584.538ZM328.593 588.662C300.261 448.533 642.559 261.087 1093.14 169.989C1543.71 78.8909 1931.95 118.639 1960.28 258.768C1988.61 398.897 1646.31 586.343 1195.73 677.441C745.156 768.539 356.924 728.791 328.593 588.662ZM308.205 592.784C279.166 449.153 630.017 257.021 1091.85 163.647C1553.69 70.2728 1951.63 111.014 1980.67 254.646C2009.7 398.277 1658.85 590.408 1197.02 683.783C735.179 777.157 337.245 736.416 308.205 592.784ZM287.808 596.908C258.06 449.774 617.47 252.957 1090.57 157.305C1563.67 61.6535 1971.31 103.388 2001.06 250.522C2030.81 397.656 1671.4 594.473 1198.3 690.125C725.196 785.776 317.555 744.042 287.808 596.908ZM267.42 601.03C236.965 450.394 604.928 248.892 1089.29 150.964C1573.65 53.0353 1990.99 95.7635 2021.45 246.4C2051.91 397.036 1683.94 598.538 1199.58 696.466C715.218 794.395 297.876 751.666 267.42 601.03ZM247.023 605.154C215.859 451.015 592.381 244.828 1088.01 144.622C1583.63 44.4161 2010.68 88.1372 2041.85 242.276C2073.01 396.415 1696.49 602.602 1200.86 702.808C705.235 803.014 278.187 759.293 247.023 605.154ZM226.636 609.276C194.764 451.635 579.839 240.763 1086.73 138.28C1593.61 35.7979 2030.36 80.5128 2062.23 238.154C2094.11 395.795 1709.03 606.667 1202.14 709.15C695.258 811.632 258.508 766.917 226.636 609.276ZM206.238 613.4C173.658 452.256 567.292 236.699 1085.44 131.939C1603.6 27.1786 2050.05 72.8864 2082.63 234.03C2115.21 395.174 1721.58 610.731 1203.43 715.491C685.275 820.251 238.818 774.544 206.238 613.4ZM185.841 617.524C152.553 452.878 554.745 232.635 1084.16 125.597C1613.58 18.5593 2069.74 65.2601 2103.03 229.906C2136.32 394.552 1734.13 614.795 1204.71 721.833C675.292 828.87 219.129 782.17 185.841 617.524ZM165.453 621.646C131.457 453.497 542.203 228.569 1082.88 119.255C1623.56 9.94115 2089.42 57.6357 2123.42 225.784C2157.41 393.933 1746.67 618.86 1205.99 728.175C665.314 837.489 199.45 789.794 165.453 621.646ZM145.056 625.77C110.352 454.119 529.655 224.505 1081.6 112.914C1633.54 1.32188 2109.11 50.0094 2143.81 221.66C2178.52 393.311 1759.21 622.924 1207.27 734.516C655.331 846.108 179.761 797.421 145.056 625.77ZM124.659 629.894C89.2462 454.74 517.108 220.441 1080.31 106.572C1643.52 -7.29737 2128.8 42.383 2164.21 217.536C2199.62 392.689 1771.76 626.989 1208.56 740.858C645.348 854.727 160.071 805.047 124.659 629.894ZM104.271 634.016C68.1508 455.36 504.566 216.376 1079.03 100.23C1653.5 -15.9155 2148.48 34.7587 2184.6 213.414C2220.72 392.07 1784.3 631.054 1209.84 747.2C635.371 863.345 140.392 812.671 104.271 634.016ZM83.8741 638.14C47.0442 455.976 492.017 212.302 1077.75 93.8788C1663.48 -24.5446 2168.17 27.1269 2205 209.29C2241.83 391.454 1796.85 635.128 1211.12 753.551C625.39 871.974 120.704 820.303 83.8741 638.14ZM63.4769 642.263C25.9388 456.598 479.47 208.238 1076.47 87.5371C1673.46 -33.1639 2187.86 19.5006 2225.39 205.167C2262.93 390.832 1809.4 639.192 1212.4 759.893C615.407 880.594 101.015 827.929 63.4769 642.263ZM43.0796 646.387C4.83344 457.219 466.922 204.174 1075.18 81.1954C1683.45 -41.7832 2207.54 11.8742 2245.79 201.043C2284.04 390.211 1821.95 643.256 1213.69 766.234C605.424 889.213 81.3257 835.556 43.0796 646.387ZM22.6921 650.509C-16.2622 457.839 454.381 200.109 1073.9 74.8537C1693.42 -50.4013 2227.22 4.24986 2266.18 196.921C2305.13 389.591 1834.49 647.321 1214.97 772.576C595.446 897.831 61.6463 843.18 22.6921 650.509ZM2.2948 654.633C-37.3676 458.46 441.833 196.045 1072.62 68.512C1703.41 -59.0206 2246.91 -3.37648 2286.58 192.797C2326.24 388.97 1847.04 651.385 1216.25 778.918C585.463 906.451 41.9572 850.806 2.2948 654.633Z" id="Group" fill="none" fill-rule="evenodd" stroke="#9EA3B0" stroke-width="1" />
  </g>
</svg>