<?xml version="1.0" encoding="utf-8"?>
<svg width="52.436035px" height="21.582031px" viewBox="0 0 52.436035 21.582031" version="1.1" xmlns:xlink="http://www.w3.org/1999/xlink" xmlns="http://www.w3.org/2000/svg">
  <path d="M16.8713 5.15369C18.8486 1.94794 22.3472 -0.00286865 26.1138 0C31.7446 -0.00292969 36.4441 4.29761 36.9395 9.90656C31.3079 10.3316 24.8589 10.8458 18.7861 11.3033L15.2803 11.5583C12.6897 11.7505 10.2756 11.9535 8.16602 12.1309C2.72314 12.5885 -0.692383 12.8757 0.118652 12.368C0.592529 12.0765 7.96069 11.1089 11.7136 9.64746C15.2236 8.27905 15.9766 6.59491 16.5715 5.66785L16.5959 5.61517C16.6851 5.46136 16.7742 5.30347 16.8713 5.15369L16.8713 5.15369ZM51.9509 9.00525C50.1938 8.94855 44.3154 9.35748 37.0364 9.90399C37.0647 10.2158 37.0769 10.5356 37.0769 10.8554C37.0776 11.283 37.052 11.7103 37 12.1348C38.2659 11.9078 39.5225 11.6847 40.74 11.4684C48.2124 10.1414 54.2173 9.07489 51.9509 9.00525L51.9509 9.00525ZM21.1401 20.5908C20.2859 20.1819 16.4319 18.1293 18.7112 16.1618C19.0217 15.9388 19.3643 15.7641 19.7273 15.6436C22.4641 14.6234 29.5974 13.2469 36.4514 12C36.0457 15.4183 34.0437 18.442 31.0552 20.1502C28.0667 21.8585 24.4453 22.049 21.2939 20.6637L21.2131 20.6232L21.1401 20.5908L21.1401 20.5908Z" id="Вектор" fill="#332E3C" fill-rule="evenodd" stroke="none" />
</svg>