<svg width="2521.0002px" height="934.0034px" viewBox="0 0 2521.0002 934.0034" version="1.1" xmlns:xlink="http://www.w3.org/1999/xlink" xmlns="http://www.w3.org/2000/svg">
	<style>
		.path {
			fill: none;
			stroke: #ccc;
			stroke-width: .3px; }
			.path#ellipse1 {
			  stroke-width: 1px; }
			.path#ellipse2 {
			  stroke-width: 1px; }
			.path#ellipse3 {
			  stroke-width: 1px; }
			.path#ellipse4 {
			  stroke-width: 1px; }
			.path#ellipse5 {
			  stroke-width: 1px; }
		  
		  .planet {
			fill: #aaa;
		}
	</style>
	<path class="path" d="M2.52653 720.738C-41.1409 504.755 486.45 215.841 1180.93 75.4304C1875.42 -64.9805 2473.81 -3.71742 2517.47 212.265C2561.14 428.248 2033.55 717.162 1339.07 857.573C644.583 997.984 46.194 936.721 2.52653 720.738Z" />
	<path class="path" d="M24.9835 716.198C-17.9044 504.071 500.264 220.316 1182.34 82.4125C1864.43 -55.4907 2452.13 4.67913 2495.02 216.806C2537.9 428.932 2019.74 712.688 1337.66 850.591C655.575 988.494 67.8713 928.324 24.9835 716.198Z" />
	<path id="ellipse5" class="path" d="M47.4298 711.66C5.32151 503.389 514.072 224.792 1183.76 89.3946C1853.44 -46.0024 2430.46 13.0733 2472.57 221.344C2514.68 429.614 2005.93 708.212 1336.24 843.609C666.56 979.006 89.5379 919.93 47.4298 711.66Z" />
	<path class="path" d="M69.8867 707.119C28.5581 502.705 527.886 229.266 1185.17 96.3765C1842.45 -36.5129 2408.78 21.4697 2450.11 225.884C2491.44 430.299 1992.11 703.737 1334.83 836.627C677.551 969.516 111.215 911.534 69.8867 707.119Z" />
	<path class="path" d="M92.3437 702.579C51.7947 502.02 541.701 233.74 1186.58 103.359C1831.46 -27.0231 2387.11 29.8662 2427.66 230.425C2468.21 430.983 1978.3 699.263 1333.42 829.645C688.541 960.026 132.893 903.137 92.3437 702.579Z" />
	<path class="path" d="M114.801 698.038C75.0327 501.342 555.517 238.226 1187.99 110.351C1820.47 -17.5227 2365.43 38.2686 2405.2 234.965C2444.97 431.661 1964.48 694.778 1332.01 822.652C699.531 950.526 154.569 894.735 114.801 698.038Z" />
	<path class="path" d="M137.247 693.5C98.2583 500.66 569.326 242.701 1189.41 117.334C1809.48 -8.03434 2343.76 46.6628 2382.75 239.503C2421.74 432.343 1950.67 690.302 1330.59 815.67C710.515 941.038 176.235 886.34 137.247 693.5Z" />
	<path class="path" d="M159.704 688.96C121.495 499.976 583.14 247.176 1190.82 124.316C1798.49 1.45538 2322.09 55.0593 2360.3 244.043C2398.51 433.028 1936.86 685.827 1329.18 808.688C721.507 931.548 197.913 877.944 159.704 688.96Z" />
	<path class="path" d="M182.161 684.42C144.732 499.291 596.954 251.65 1192.23 131.298C1787.5 10.945 2300.41 63.4558 2337.84 248.584C2375.27 433.712 1923.05 681.353 1327.77 801.706C732.498 922.058 219.59 869.548 182.161 684.42Z" />
	<path class="path" d="M204.607 679.881C167.958 498.609 610.763 256.126 1193.64 138.28C1776.52 20.4335 2278.74 71.8501 2315.39 253.122C2352.04 434.394 1909.24 676.877 1326.36 794.724C743.483 912.57 241.257 861.153 204.607 679.881Z" />
	<path class="path" d="M227.064 675.341C191.194 497.925 624.577 260.601 1195.05 145.262C1765.53 29.9231 2257.07 80.2466 2292.94 257.662C2328.81 435.078 1895.42 672.403 1324.95 787.742C754.474 903.08 262.934 852.757 227.064 675.341Z" />
	<path class="path" d="M249.521 670.8C214.431 497.241 638.391 265.075 1196.46 152.244C1754.54 39.4126 2235.39 88.6429 2270.48 262.203C2305.57 435.762 1881.61 667.928 1323.54 780.759C765.465 893.591 284.612 844.36 249.521 670.8Z" />
	<path class="path" d="M271.967 666.262C237.657 496.559 652.2 269.551 1197.88 159.226C1743.55 48.9011 2213.72 97.0372 2248.03 266.741C2282.34 436.444 1867.8 663.452 1322.13 773.777C776.45 884.102 306.278 835.966 271.967 666.262Z" />
	<path id="ellipse4" class="path" d="M294.424 661.722C260.893 495.874 666.014 274.025 1199.29 166.208C1732.56 58.3909 2192.04 105.434 2225.58 271.281C2259.11 437.129 1853.99 658.978 1320.71 766.795C787.441 874.613 327.956 827.57 294.424 661.722Z" />
	<path class="path" d="M316.871 657.184C284.119 495.192 679.822 278.501 1200.7 173.19C1721.57 67.8793 2170.38 113.828 2203.13 275.82C2235.88 437.811 1840.18 654.502 1319.3 759.813C798.426 865.124 349.622 819.175 316.871 657.184Z" />
	<path class="path" d="M339.328 652.643C307.356 494.508 693.636 282.975 1202.11 180.172C1710.58 77.3689 2148.7 122.224 2180.67 280.36C2212.64 438.495 1826.36 650.028 1317.89 752.831C809.417 855.634 371.299 810.779 339.328 652.643Z" />
	<path class="path" d="M361.774 648.105C330.582 493.826 707.445 287.451 1203.52 187.154C1699.6 86.8574 2127.03 130.619 2158.23 284.898C2189.42 439.177 1812.56 645.552 1316.48 745.849C820.402 846.146 392.966 802.385 361.774 648.105Z" />
	<path class="path" d="M384.231 643.565C353.818 493.142 721.259 291.926 1204.93 194.136C1688.61 96.3471 2105.36 139.015 2135.77 289.439C2166.18 439.862 1798.74 641.078 1315.07 738.867C831.393 836.656 414.643 793.988 384.231 643.565Z" />
	<path class="path" d="M406.677 639.027C377.044 492.46 735.067 296.401 1206.34 201.118C1677.62 105.835 2083.69 147.41 2113.32 293.977C2142.96 440.544 1784.93 636.602 1313.66 731.885C842.378 827.168 436.31 785.594 406.677 639.027Z" />
	<path class="path" d="M429.134 634.486C400.281 491.775 748.882 300.876 1207.76 208.101C1666.63 115.325 2062.01 155.806 2090.87 298.517C2119.72 441.228 1771.12 632.128 1312.24 724.903C853.369 817.678 457.987 777.197 429.134 634.486Z" />
	<path class="path" d="M451.58 629.948C423.507 491.093 762.69 305.352 1209.17 215.083C1655.65 124.814 2040.35 164.2 2068.42 303.055C2096.49 441.91 1757.31 627.652 1310.83 717.921C864.354 808.19 479.654 768.803 451.58 629.948Z" />
	<path class="path" d="M474.026 625.41C446.732 490.411 776.498 309.827 1210.58 222.065C1644.66 134.302 2018.68 172.595 2045.97 307.593C2073.27 442.592 1743.5 623.176 1309.42 710.939C875.339 798.702 501.32 760.409 474.026 625.41Z" />
	<path class="path" d="M496.473 620.872C469.958 489.729 790.307 314.303 1211.99 229.047C1633.68 143.79 1997.01 180.989 2023.53 312.132C2050.04 443.274 1729.69 618.7 1308.01 703.957C886.324 789.213 522.987 752.015 496.473 620.872Z" />
	<path id="ellipse3" class="path" d="M518.919 616.334C493.184 489.047 804.115 318.779 1213.4 236.029C1622.69 153.279 1975.35 189.383 2001.08 316.67C2026.82 443.956 1715.89 614.225 1306.6 696.975C897.31 779.725 544.654 743.621 518.919 616.334Z" />
	<path class="path" d="M541.365 611.796C516.41 488.365 817.923 323.254 1214.81 243.011C1611.71 162.767 1953.68 197.777 1978.63 321.208C2003.59 444.638 1702.08 609.749 1305.19 689.993C908.294 770.236 566.32 735.226 541.365 611.796Z" />
	<path class="path" d="M563.811 607.257C539.636 487.683 831.732 327.73 1216.23 249.993C1600.72 172.256 1932.01 206.172 1956.19 325.746C1980.36 445.321 1688.27 605.273 1303.77 683.011C919.279 760.748 587.987 726.832 563.811 607.257Z" />
	<path class="path" d="M586.257 602.719C562.861 487.001 845.54 332.206 1217.64 256.975C1589.74 181.744 1910.35 214.566 1933.74 330.284C1957.14 446.003 1674.46 600.798 1302.36 676.029C930.264 751.26 609.653 718.438 586.257 602.719Z" />
	<path class="path" d="M608.704 598.181C586.086 486.313 859.346 336.671 1219.05 263.946C1578.75 191.222 1888.68 222.954 1911.3 334.822C1933.91 446.691 1660.65 596.333 1300.95 669.057C941.252 741.782 631.321 710.049 608.704 598.181Z" />
	<path class="path" d="M631.15 593.643C609.312 485.631 873.154 341.146 1220.46 270.928C1567.76 200.71 1867.01 231.348 1888.85 339.361C1910.69 447.373 1646.85 591.857 1299.54 662.075C952.237 732.293 652.988 701.655 631.15 593.643Z" />
	<path class="path" d="M653.596 589.105C632.538 484.949 886.963 345.622 1221.87 277.91C1556.78 210.199 1845.35 239.743 1866.4 343.899C1887.46 448.055 1633.04 587.381 1298.13 655.093C963.222 722.805 674.654 693.261 653.596 589.105Z" />
	<path class="path" d="M676.032 584.569C655.753 484.269 900.765 350.099 1223.28 284.892C1545.8 219.686 1823.69 248.135 1843.97 348.435C1864.25 448.735 1619.23 582.904 1296.72 648.111C974.201 713.318 696.31 684.869 676.032 584.569Z" />
	<path class="path" d="M698.467 580.033C678.967 483.583 914.565 354.565 1224.69 291.864C1534.82 229.162 1802.03 256.521 1821.53 352.971C1841.03 449.421 1605.43 578.438 1295.31 641.14C985.182 703.841 717.967 676.483 698.467 580.033Z" />
	<path class="path" d="M720.913 575.495C702.193 482.901 928.374 359.041 1226.1 298.846C1523.83 238.651 1780.37 264.915 1799.09 357.509C1817.81 450.103 1591.63 573.963 1293.9 634.158C996.167 694.353 739.634 668.088 720.913 575.495Z" />
	<path class="path" d="M743.349 570.959C725.408 482.221 942.176 363.518 1227.51 305.828C1512.85 248.138 1758.71 273.307 1776.65 362.045C1794.59 450.783 1577.82 569.486 1292.49 627.176C1007.15 684.866 761.29 659.696 743.349 570.959Z" />
	<path class="path" d="M765.784 566.422C748.621 481.535 955.976 367.984 1228.92 312.799C1501.87 257.614 1737.05 281.693 1754.22 366.581C1771.38 451.469 1564.02 565.02 1291.08 620.204C1018.13 675.389 782.947 651.31 765.784 566.422Z" />
	<path class="path" d="M788.209 561.889C771.826 480.857 969.773 372.462 1230.34 319.781C1490.9 267.1 1715.41 290.083 1731.79 371.115C1748.17 452.146 1550.23 560.542 1289.66 613.222C1029.1 665.903 804.592 642.92 788.209 561.889Z" />
	<path class="path" d="M810.644 557.353C795.04 480.171 983.573 376.928 1231.75 326.753C1479.92 276.577 1693.75 298.469 1709.36 375.651C1724.96 452.832 1536.43 556.075 1288.25 606.251C1040.08 656.427 826.249 634.534 810.644 557.353Z" />
	<path id="ellipse2" class="path" d="M833.069 552.819C818.242 479.487 997.367 381.395 1233.15 333.724C1468.94 286.052 1672.11 306.853 1686.93 380.185C1701.76 453.516 1522.63 551.608 1286.84 599.28C1051.06 646.951 847.895 626.15 833.069 552.819Z" />
	<path class="path" d="M855.493 548.285C841.446 478.804 1011.16 385.863 1234.56 340.695C1457.97 295.527 1650.46 315.237 1664.51 384.718C1678.55 454.2 1508.84 547.141 1285.44 592.308C1062.03 637.476 869.541 617.766 855.493 548.285Z" />
	<path class="path" d="M877.907 543.753C864.638 478.122 1024.95 390.331 1235.97 347.666C1447 305.001 1628.82 323.619 1642.09 389.25C1655.36 454.881 1495.05 542.672 1284.03 585.337C1073 628.002 891.176 609.384 877.907 543.753Z" />
	<path class="path" d="M900.321 539.222C887.83 477.441 1038.74 394.8 1237.38 354.638C1436.03 314.475 1607.19 332.001 1619.68 393.782C1632.17 455.563 1481.26 538.204 1282.62 578.366C1083.97 618.528 912.812 601.002 900.321 539.222Z" />
	<path class="path" d="M922.724 534.692C911.012 476.761 1052.52 399.269 1238.79 361.609C1425.07 323.948 1585.56 340.38 1597.28 398.311C1608.99 456.242 1467.48 533.734 1281.21 571.395C1094.94 609.055 934.437 592.623 922.724 534.692Z" />
	<path class="path" d="M945.127 530.163C934.193 476.082 1066.3 403.739 1240.2 368.58C1414.1 333.421 1563.94 348.76 1574.87 402.841C1585.81 456.921 1453.7 529.264 1279.8 564.423C1105.9 599.582 956.061 584.243 945.127 530.163Z" />
	<path class="path" d="M967.509 525.638C957.352 475.401 1080.07 408.2 1241.61 375.541C1403.15 342.881 1542.33 357.129 1552.49 407.366C1562.65 457.602 1439.93 524.803 1278.39 557.463C1116.85 590.123 977.665 575.874 967.509 525.638Z" />
	<path class="path" d="M989.89 521.113C980.51 474.72 1093.84 412.662 1243.02 382.501C1392.19 352.34 1520.73 365.499 1530.11 411.891C1539.49 458.283 1426.16 520.341 1276.98 550.502C1127.81 580.663 999.27 567.505 989.89 521.113Z" />
	<path id="ellipse1" class="path" d="M1012.25 516.592C1003.65 474.038 1107.59 417.115 1244.42 389.451C1381.25 361.787 1499.15 373.857 1507.75 416.411C1516.35 458.966 1412.41 515.889 1275.58 543.553C1138.75 571.217 1020.85 559.146 1012.25 516.592Z" />
	<circle class="planet" id="planet1" r="8" cx="0" cy="0">
		<animateMotion dur="10s" from="0" repeatCount="indefinite" >
			<mpath xlink:href="#ellipse5" />
		</animateMotion>
	</circle>
	<circle class="planet" id="planet2" r="8" cx="0" cy="0">
		<animateMotion dur="8s" repeatCount="indefinite">
			<mpath xlink:href="#ellipse4" />
		</animateMotion>
	</circle>
	<circle class="planet" id="planet3" r="8" cx="0" cy="0">
		<animateMotion dur="12s" repeatCount="indefinite">
			<mpath xlink:href="#ellipse3" />
		</animateMotion>
	</circle>
	<circle class="planet" id="planet4" r="8" cx="0" cy="0">
		<animateMotion dur="6s" repeatCount="indefinite">
			<mpath xlink:href="#ellipse2" />
		</animateMotion>
	</circle>
	<circle class="planet" id="planet5" r="8" cx="0" cy="0">
		<animateMotion dur="4s" repeatCount="indefinite">
			<mpath xlink:href="#ellipse1" />
		</animateMotion>
	</circle>
</svg>