<?xml version="1.0" encoding="utf-8"?>
<svg width="1517.7614px" height="870.84045px" viewBox="0 0 1517.7614 870.84045" version="1.1" xmlns:xlink="http://www.w3.org/1999/xlink" xmlns="http://www.w3.org/2000/svg">
  <path d="M478.215 338.323C512.722 241.853 594.815 170.156 695.087 148.924C844.95 116.988 994.358 204.812 1039.26 351.231C891.768 394.4 723.013 444.567 563.961 491.096L472.083 517.72C404.215 537.488 341.11 556.55 285.962 573.2C143.668 616.174 54.3818 643.136 73.1012 625.037C84.0598 614.602 274.712 547.174 366.341 487.061C452.031 430.797 462.552 381.732 473.149 353.697L473.499 352.163C475.001 347.567 476.476 342.861 478.215 338.323L478.215 338.323ZM1433.74 242.324C1386.64 250.752 1232.49 294.89 1041.83 350.615C1044.35 358.75 1046.48 367.19 1048.29 375.699C1050.73 387.067 1052.46 398.579 1053.47 410.169C1085.89 396.972 1118.07 383.926 1149.25 371.284C1340.69 293.683 1494.44 231.355 1433.74 242.324L1433.74 242.324ZM679.14 724.867C654.089 718.821 539.895 686.021 589.438 620.781C596.446 613.087 604.579 606.504 613.557 601.242C680.632 558.615 862.723 481.636 1038.11 409.687C1046.64 502.921 1010.45 594.697 940.563 657.046C870.675 719.402 775.361 744.957 683.645 725.932L681.263 725.319L679.14 724.867L679.14 724.867Z" id="Вектор" fill="#FDFDFD" fill-opacity="0.21960784" fill-rule="evenodd" stroke="none" />
</svg>