<?xml version="1.0" encoding="utf-8"?>
<svg width="216.9624px" height="47.25595px" viewBox="0 0 216.9624 47.25595" version="1.1" xmlns:xlink="http://www.w3.org/1999/xlink" xmlns="http://www.w3.org/2000/svg">
  <defs>
    <linearGradient gradientUnits="userSpaceOnUse" x1="0" y1="23.626226" x2="216.95122" y2="23.626226" id="gradient_1">
      <stop offset="0%" stop-color="#112FC1" />
      <stop offset="100%" stop-color="#01D3D3" />
    </linearGradient>
  </defs>
  <path d="M21.3386 17.2005L0 25.3952L0 8.19464L21.3386 0L21.3386 17.2005L21.3386 17.2005ZM25.8352 0L47.2546 8.19464L47.2546 25.3952L25.8352 17.2006L25.8352 0L25.8352 0ZM145.707 28.1012C147.521 28.1012 148.973 27.6172 150.062 26.7099C151.211 25.8027 151.756 24.593 151.756 23.0202C151.756 22.0525 151.514 21.2054 151.151 20.6612C150.848 20.1168 150.062 19.5117 149.578 19.149C149.336 18.9675 148.973 18.786 148.55 18.665C148.066 18.4836 147.764 18.302 147.461 18.2415L146.312 17.8788C145.042 17.5157 144.255 17.1528 143.771 16.8503C143.348 16.4876 143.106 16.064 143.106 15.58C143.106 14.6123 143.953 13.8863 145.283 13.8863C146.735 13.8863 147.824 14.6123 148.489 16.064L151.272 14.4913C150.123 12.1324 148.005 10.7411 145.283 10.7411C143.771 10.7411 142.44 11.2248 141.412 12.1324C140.323 13.0396 139.839 14.2493 139.839 15.7616C139.839 17.2738 140.384 18.423 141.412 19.2096C142.44 19.9352 143.348 20.2982 144.86 20.782C146.251 21.145 147.159 21.508 147.703 21.871C148.247 22.1732 148.489 22.6572 148.489 23.2622C148.489 24.2904 147.643 25.0162 145.828 25.0162C143.892 25.0162 142.622 24.1695 141.957 22.4758L139.114 24.109C140.021 26.5284 142.38 28.1012 145.707 28.1012L145.707 28.1012ZM161.737 28.1012C164.822 28.1012 167.483 26.5889 168.935 24.1694L166.092 22.5362C165.305 23.988 163.672 24.8952 161.737 24.8952C160.103 24.8952 158.772 24.4115 157.805 23.383C156.837 22.3548 156.292 21.024 156.292 19.4512C156.292 17.818 156.776 16.4873 157.805 15.459C158.833 14.4308 160.103 13.9468 161.737 13.9468C163.672 13.9468 165.245 14.8543 166.092 16.3663L168.935 14.7333C167.483 12.3136 164.761 10.8016 161.737 10.8016C159.196 10.8016 157.139 11.6484 155.506 13.3421C153.873 14.9751 153.026 17.0923 153.026 19.5118C153.026 21.9918 153.812 24.0485 155.506 25.6817C157.139 27.2544 159.256 28.1012 161.737 28.1012L161.737 28.1012ZM75.6614 21.4475L79.3159 27.7382L75.9033 27.7382L72.5159 21.9312L69.9753 21.9312L69.9753 27.7382L66.6484 27.7382L66.6484 10.9829L73.3022 10.9829C74.8145 10.9829 76.1453 11.5274 77.2339 12.6161C78.3228 13.7048 78.8672 15.0356 78.8672 16.5479C78.8672 18.665 77.5969 20.54 75.6614 21.4475L75.6614 21.4475ZM84.6133 20.8425L90.9648 20.8425L90.9648 17.7578L84.6133 17.7578L84.6133 14.1888L91.5696 14.1888L91.5696 11.0433L81.2866 11.0433L81.2866 27.7987L91.6301 27.7987L91.6301 24.6535L84.6133 24.6535L84.6133 20.8425L84.6133 20.8425ZM108.627 27.7987L102.76 11.0433L98.6467 11.0433L92.7793 27.7987L96.3484 27.7987L97.3767 24.7745L104.03 24.7745L105.058 27.7987L108.627 27.7987L108.627 27.7987ZM110.26 11.0433L110.26 27.7987L116.914 27.7987C119.213 27.7987 121.149 27.0125 122.661 25.3792C124.233 23.7459 124.959 21.8105 124.959 19.4512C124.959 17.0923 124.173 15.0963 122.661 13.463C121.149 11.8903 119.213 11.0433 116.914 11.0433L110.26 11.0433L110.26 11.0433ZM135.605 11.0433L131.976 18.06L128.347 11.0433L124.596 11.0433L130.343 21.266L130.343 27.7987L133.609 27.7987L133.609 21.266L139.356 11.0433L135.605 11.0433L135.605 11.0433ZM183.754 27.7987L180.064 21.508C182 20.6007 183.271 18.7256 183.271 16.6083C183.271 15.0963 182.726 13.7656 181.637 12.6765C180.548 11.5879 179.218 11.0433 177.705 11.0433L170.991 11.0433L170.991 27.7987L174.318 27.7987L174.318 21.992L176.859 21.992L180.246 27.7987L183.754 27.7987L183.754 27.7987ZM185.69 27.7987L189.017 27.7987L189.017 11.0433L185.69 11.0433L185.69 27.7987L185.69 27.7987ZM192.102 11.0433L192.102 27.7987L195.428 27.7987L195.428 22.2943L198.393 22.2943C200.025 22.2943 201.356 21.75 202.445 20.6613C203.534 19.5723 204.078 18.2415 204.078 16.6688C204.078 15.0963 203.534 13.7656 202.445 12.6765C201.356 11.5879 199.965 11.0433 198.393 11.0433L192.102 11.0433L192.102 11.0433ZM204.623 11.0433L204.623 14.1888L209.099 14.1888L209.099 27.7987L212.426 27.7987L212.426 14.1888L216.962 14.1888L216.962 11.0433L204.623 11.0433L204.623 11.0433ZM73.302 14.1283C74.5723 14.1283 75.6006 15.217 75.6006 16.6082C75.6006 17.9995 74.5723 19.0884 73.302 19.0884L69.9148 19.0884L69.9148 14.1283L73.302 14.1283L73.302 14.1283ZM177.645 14.1283C178.915 14.1283 179.943 15.217 179.943 16.6082C179.943 17.9995 178.915 19.0884 177.645 19.0884L174.257 19.0884L174.257 14.1283L177.645 14.1283L177.645 14.1283ZM195.368 19.2095L195.368 14.1283L198.332 14.1283C199.723 14.1283 200.751 15.217 200.751 16.6687C200.751 18.1205 199.723 19.2092 198.332 19.2092L195.368 19.2095L195.368 19.2095ZM113.527 24.593L113.527 14.1888L116.854 14.1888C118.306 14.1888 119.515 14.6728 120.423 15.6406C121.33 16.6083 121.814 17.8183 121.814 19.3908C121.814 20.9635 121.33 22.1732 120.423 23.1413C119.515 24.109 118.366 24.593 116.854 24.593L113.527 24.593L113.527 24.593ZM100.704 14.8544L103.002 21.6895L98.405 21.6895L100.704 14.8544L100.704 14.8544ZM47.1733 47.256L25.8352 39.0612L25.8352 21.8606L47.1733 30.0552L47.1733 47.256L47.1733 47.256ZM79.6472 28.0694L79.3159 27.7382L79.6472 27.7382L79.6472 28.0694L79.6472 28.0694ZM21.4197 38.8159L0 47.0107L0 29.8099L21.4197 38.8159L21.4197 38.8159ZM90.3601 34.4527C90.3601 34.0292 90.1787 33.6662 89.8762 33.4242C89.5737 33.1825 89.0898 33.0009 88.5454 33.0009L88.5454 32.6379L88.1221 32.6379L88.1221 33.0009C87.5776 33.0009 87.0938 33.1825 86.7913 33.4242C86.4888 33.6662 86.3074 34.0292 86.3074 34.5132C86.3074 34.9364 86.4888 35.2994 86.7913 35.5414C87.0938 35.7834 87.5776 35.965 88.1221 35.965L88.1221 36.3276L88.5454 36.3276L88.5454 35.965C89.0898 35.965 89.5737 35.7834 89.8762 35.5414C90.2393 35.2994 90.3601 34.9364 90.3601 34.4527L90.3601 34.4527ZM94.1101 36.2066C94.4731 36.2066 94.7756 36.1461 95.0173 35.9646C95.3198 35.8438 95.5015 35.6018 95.6829 35.3599C95.8643 35.1178 95.9248 34.8153 95.9248 34.4526C95.9248 34.1501 95.8643 33.8476 95.6829 33.5451C95.5015 33.3031 95.3198 33.0614 95.0173 32.9404C94.7151 32.8193 94.4126 32.6984 94.1101 32.6984C93.7471 32.6984 93.4448 32.7589 93.2029 32.9404C92.9004 33.0614 92.7188 33.3031 92.5374 33.5451C92.356 33.7871 92.2954 34.0896 92.2954 34.4526C92.2954 34.7548 92.356 35.0573 92.5374 35.3599C92.7188 35.6018 92.9004 35.8438 93.2029 35.9646C93.4448 36.1461 93.7471 36.2066 94.1101 36.2066L94.1101 36.2066ZM66.5879 32.7589L66.5879 36.1461L67.0718 36.1461L67.0718 33.1822L69.0679 33.1822L69.0679 36.1461L69.552 36.1461L69.552 32.7589L66.5879 32.7589L66.5879 32.7589ZM72.3948 32.7589L72.3345 34.2106C72.3345 34.5734 72.2739 34.8759 72.2739 35.1179C72.2134 35.3598 72.1528 35.4809 72.0925 35.6019C72.032 35.7228 71.9109 35.7831 71.7295 35.7831L71.5481 35.7831L71.4875 36.2066C71.6084 36.2066 71.6689 36.2672 71.79 36.2672C72.032 36.2672 72.2134 36.2066 72.3345 36.0251C72.4553 35.9041 72.5764 35.6624 72.6367 35.3598C72.6973 35.0574 72.7578 34.6944 72.7578 34.2106L72.8184 33.2426L74.3303 33.2426L74.3303 36.2066L74.8142 36.2066L74.8142 32.8194L72.3948 32.8194L72.3948 32.7589L72.3948 32.7589ZM84.6135 32.7589L81.8311 32.7589L81.8311 33.1822L82.9802 33.1822L82.9802 36.1461L83.4641 36.1461L83.4641 33.1822L84.6135 33.1822L84.6135 32.7589L84.6135 32.7589ZM99.4939 32.7589L98.1631 32.7589L98.1631 36.1461L98.647 36.1461L98.647 35.1179L99.4939 35.1179C99.9172 35.1179 100.28 34.9968 100.522 34.8154C100.764 34.6339 100.885 34.3316 100.885 33.9687C100.885 33.6057 100.764 33.3031 100.522 33.1217C100.28 32.8799 99.9172 32.7589 99.4939 32.7589L99.4939 32.7589ZM122.842 32.7589L122.782 34.2106C122.782 34.5734 122.721 34.8759 122.721 35.1179C122.661 35.3598 122.6 35.4809 122.54 35.6019C122.479 35.7228 122.358 35.7831 122.177 35.7831L121.995 35.7831L121.935 36.2066C122.056 36.2066 122.116 36.2672 122.237 36.2672C122.479 36.2672 122.661 36.2066 122.782 36.0251C122.903 35.9041 123.024 35.6624 123.084 35.3598C123.145 35.0574 123.205 34.6944 123.205 34.2106L123.266 33.2426L124.778 33.2426L124.778 36.2066L125.262 36.2066L125.262 32.8194L122.842 32.8194L122.842 32.7589L122.842 32.7589ZM128.891 32.7589C128.468 32.7589 128.105 32.8799 127.863 33.0611C127.621 33.3031 127.5 33.6057 127.5 33.9687C127.5 34.2711 127.56 34.4524 127.681 34.6339C127.802 34.8154 127.984 34.9363 128.226 35.0574L127.5 36.1461L128.044 36.1461L128.709 35.1784L129.798 35.1784L129.798 36.1461L130.282 36.1461L130.282 32.7589L128.891 32.7589L128.891 32.7589ZM143.469 32.7589L143.469 34.2106L141.533 34.2106L141.533 32.7589L140.989 32.7589L140.989 36.1461L141.473 36.1461L141.473 34.6339L143.408 34.6339L143.408 36.1461L143.892 36.1461L143.892 32.7589L143.469 32.7589L143.469 32.7589ZM148.792 32.7589L146.01 32.7589L146.01 33.1822L147.159 33.1822L147.159 36.1461L147.643 36.1461L147.643 33.1822L148.792 33.1822L148.792 32.7589L148.792 32.7589ZM156.837 32.7589L155.506 32.7589L155.506 36.1461L155.99 36.1461L155.99 35.1179L156.837 35.1179C157.26 35.1179 157.623 34.9968 157.865 34.8154C158.107 34.6339 158.228 34.3316 158.228 33.9687C158.228 33.6057 158.107 33.3031 157.865 33.1217C157.623 32.8799 157.321 32.7589 156.837 32.7589L156.837 32.7589ZM162.885 32.7589L162.885 34.2106L160.95 34.2106L160.95 32.7589L160.466 32.7589L160.466 36.1461L160.95 36.1461L160.95 34.6339L162.885 34.6339L162.885 36.1461L163.37 36.1461L163.37 32.7589L162.885 32.7589L162.885 32.7589ZM172.866 32.7589L170.084 32.7589L170.084 33.1822L171.233 33.1822L171.233 36.1461L171.717 36.1461L171.717 33.1822L172.866 33.1822L172.866 32.7589L172.866 32.7589ZM191.799 32.7589L189.562 32.7589L189.562 36.1461L190.045 36.1461L190.045 33.1822L191.799 33.1822L191.799 32.7589L191.799 32.7589ZM199.965 34.3919C200.146 34.3316 200.268 34.2106 200.389 34.0896C200.51 33.9687 200.51 33.7871 200.51 33.6661C200.51 33.4846 200.449 33.3031 200.328 33.1822C200.207 33.0611 200.026 32.9404 199.844 32.8799C199.663 32.8194 199.421 32.7589 199.179 32.7589C198.998 32.7589 198.816 32.7589 198.634 32.8194C198.453 32.8799 198.271 32.9404 198.09 33.0611L198.271 33.4846C198.393 33.4241 198.574 33.3031 198.755 33.3031C198.937 33.2426 199.058 33.2426 199.239 33.2426C199.481 33.2426 199.663 33.3031 199.844 33.4241C200.026 33.5452 200.086 33.6661 200.086 33.8476C200.086 34.0291 200.026 34.1501 199.905 34.2106C199.784 34.2711 199.602 34.3316 199.421 34.3316L198.695 34.3316L198.695 34.7549L199.481 34.7549C199.723 34.7549 199.905 34.8154 200.086 34.8759C200.207 34.9968 200.268 35.1179 200.268 35.2993C200.268 35.4809 200.146 35.6624 199.965 35.7831C199.784 35.9041 199.542 35.9646 199.3 35.9646C199.119 35.9646 198.937 35.9646 198.755 35.9041C198.574 35.8436 198.393 35.7831 198.271 35.6624L198.09 36.0251C198.271 36.1461 198.453 36.2672 198.695 36.3276C198.937 36.3881 199.119 36.4486 199.36 36.4486C199.602 36.4486 199.844 36.3881 200.026 36.3276C200.268 36.2672 200.389 36.1461 200.51 35.9646C200.631 35.8436 200.691 35.6624 200.691 35.4203C200.691 35.2389 200.631 35.0574 200.51 34.8759C200.328 34.5734 200.207 34.4524 199.965 34.3919L199.965 34.3919ZM210.792 32.7589L210.792 34.2106L208.857 34.2106L208.857 32.7589L208.373 32.7589L208.373 36.1461L208.857 36.1461L208.857 34.6339L210.792 34.6339L210.792 36.1461L211.276 36.1461L211.276 32.7589L210.792 32.7589L210.792 32.7589ZM79.8955 36.2066L80.3794 36.2066L78.8069 32.8193L78.3228 32.8193L76.8105 36.2066L77.2947 36.2066L77.6575 35.3599L79.4722 35.3599L79.8955 36.2066L79.8955 36.2066ZM106.692 36.2066L106.692 32.8193L106.269 32.8193L104.877 35.2388L103.486 32.8193L103.063 32.8193L103.063 36.2066L103.486 36.2066L103.486 33.7266L104.696 35.7834L104.938 35.7834L106.147 33.7266L106.147 36.2066L106.692 36.2066L106.692 36.2066ZM111.773 36.2066L112.257 36.2066L110.684 32.8193L110.2 32.8193L108.688 36.2066L109.172 36.2066L109.535 35.3599L111.35 35.3599L111.773 36.2066L111.773 36.2066ZM119.818 35.7834L119.818 32.8193L117.398 32.8193L117.338 33.9081C117.338 34.5128 117.277 34.9364 117.156 35.2993C117.096 35.6018 116.915 35.7834 116.733 35.7834L116.552 35.7834L116.552 36.9326L116.975 36.9326L116.975 36.2066L119.758 36.2066L119.758 36.9326L120.181 36.9326L120.181 35.7834L119.818 35.7834L119.818 35.7834ZM135.545 36.2066L135.968 36.2066L137.964 33.6056L137.964 36.2066L138.448 36.2066L138.448 32.8193L138.025 32.8193L136.029 35.4203L136.029 32.8193L135.545 32.8193L135.545 36.2066L135.545 36.2066ZM151.332 35.7834L151.332 34.6943L153.026 34.6943L153.026 34.2711L151.332 34.2711L151.332 33.2426L153.268 33.2426L153.268 32.8193L150.848 32.8193L150.848 36.2066L153.329 36.2066L153.329 35.7834L151.332 35.7834L151.332 35.7834ZM166.333 35.7834L166.333 34.6943L168.027 34.6943L168.027 34.2711L166.333 34.2711L166.333 33.2426L168.269 33.2426L168.269 32.8193L165.849 32.8193L165.849 36.2066L168.33 36.2066L168.33 35.7834L166.333 35.7834L166.333 35.7834ZM181.879 36.2066L181.879 32.8193L181.516 32.8193L180.125 35.2388L178.733 32.8193L178.31 32.8193L178.31 36.2066L178.794 36.2066L178.794 33.7266L180.004 35.7834L180.246 35.7834L181.456 33.7266L181.456 36.2066L181.879 36.2066L181.879 36.2066ZM187.021 36.2066L187.504 36.2066L185.932 32.8193L185.448 32.8193L183.936 36.2066L184.419 36.2066L184.783 35.3599L186.597 35.3599L187.021 36.2066L187.021 36.2066ZM195.792 36.2066L196.275 36.2066L194.703 32.8193L194.219 32.8193L192.707 36.2066L193.19 36.2066L193.554 35.3599L195.368 35.3599L195.792 36.2066L195.792 36.2066ZM202.929 36.2066L203.353 36.2066L205.349 33.6056L205.349 36.2066L205.833 36.2066L205.833 32.8193L205.409 32.8193L203.413 35.4203L203.413 32.8193L202.929 32.8193L202.929 36.2066L202.929 36.2066ZM216.418 36.2066L216.902 36.2066L215.329 32.8193L214.845 32.8193L213.333 36.2066L213.817 36.2066L214.18 35.3599L215.995 35.3599L216.418 36.2066L216.418 36.2066ZM94.1101 35.7834C93.8682 35.7834 93.6262 35.723 93.4448 35.602C93.2634 35.4809 93.0818 35.36 92.9609 35.1179C92.8398 34.9365 92.7793 34.6944 92.7793 34.4527C92.7793 34.2107 92.8398 33.9687 92.9609 33.7872C93.0818 33.6058 93.2634 33.4242 93.4448 33.3033C93.6262 33.1822 93.8682 33.1219 94.1101 33.1219C94.3521 33.1219 94.594 33.1822 94.7756 33.3033C94.957 33.4242 95.1387 33.5452 95.2595 33.7872C95.3804 33.9687 95.4409 34.2107 95.4409 34.4527C95.4409 34.6944 95.3804 34.9365 95.2595 35.1179C95.1387 35.2995 94.957 35.4809 94.7756 35.602C94.594 35.723 94.3521 35.7834 94.1101 35.7834L94.1101 35.7834ZM117.822 33.9081L117.822 33.1821L119.334 33.1821L119.334 35.7229L117.398 35.7229C117.519 35.6018 117.64 35.3599 117.701 35.0574C117.761 34.8153 117.822 34.3921 117.822 33.9081L117.822 33.9081ZM77.8992 34.9364L78.625 33.2429L79.3508 34.9364L77.8992 34.9364L77.8992 34.9364ZM99.4939 34.7549L98.647 34.7549L98.647 33.2429L99.4939 33.2429C99.7961 33.2429 100.038 33.3032 100.22 33.4241C100.401 33.5451 100.462 33.7267 100.462 33.9686C100.462 34.2106 100.401 34.3922 100.22 34.5132C100.038 34.6339 99.7961 34.7549 99.4939 34.7549L99.4939 34.7549ZM109.777 34.9364L110.503 33.2429L111.229 34.9364L109.777 34.9364L109.777 34.9364ZM127.984 34.0292C127.984 33.7871 128.044 33.5451 128.226 33.4241C128.407 33.3032 128.589 33.2429 128.891 33.2429L129.738 33.2429L129.738 34.8154L128.891 34.8154C128.589 34.8154 128.407 34.7549 128.226 34.6341C128.105 34.4527 127.984 34.2711 127.984 34.0292L127.984 34.0292ZM156.837 34.7549L155.99 34.7549L155.99 33.2429L156.837 33.2429C157.139 33.2429 157.381 33.3032 157.563 33.4241C157.744 33.5451 157.805 33.7267 157.805 33.9686C157.805 34.2106 157.744 34.3922 157.563 34.5132C157.381 34.6339 157.139 34.7549 156.837 34.7549L156.837 34.7549ZM185.024 34.9364L185.75 33.2429L186.477 34.9364L185.024 34.9364L185.024 34.9364ZM193.734 34.9364L194.46 33.2429L195.187 34.9364L193.734 34.9364L193.734 34.9364ZM214.422 34.9364L215.148 33.2429L215.874 34.9364L214.422 34.9364L214.422 34.9364ZM86.7913 34.4524C86.7913 34.0897 86.9121 33.8476 87.1543 33.6662C87.3962 33.4846 87.6985 33.3636 88.1221 33.3636L88.1221 35.5413C87.6985 35.5413 87.3357 35.4203 87.1543 35.2389C86.9121 35.0574 86.7913 34.8154 86.7913 34.4524L86.7913 34.4524ZM88.5452 35.5413L88.5452 33.3636C88.9685 33.3636 89.3315 33.4846 89.5132 33.6662C89.7551 33.8476 89.876 34.0897 89.876 34.4524C89.876 34.8154 89.7551 35.0574 89.5132 35.2389C89.3315 35.4203 88.9685 35.5413 88.5452 35.5413L88.5452 35.5413ZM174.681 34.8758L176.012 34.8758L176.012 34.2711L174.681 34.2711L174.681 34.8758L174.681 34.8758Z" id="readyscript_logo" fill="url(#gradient_1)" fill-rule="evenodd" stroke="none" />
</svg>