<?xml version="1.0" encoding="utf-8"?>
<svg width="260.3008px" height="111.51343px" viewBox="0 0 260.3008 111.51343" version="1.1" xmlns:xlink="http://www.w3.org/1999/xlink" xmlns="http://www.w3.org/2000/svg">
  <g id="webdev">
    <path d="M133.601 17.8853C132.78 17.1699 131.476 16.2859 130.719 15.9074C129.372 15.2127 129.372 15.192 130.087 15.192C133.033 15.1496 139.323 16.1597 139.996 16.7698C140.396 17.1275 141.174 19.3154 140.985 19.5046C140.922 19.547 140.375 19.5046 139.765 19.3785C139.155 19.2739 137.872 19.1685 136.904 19.1685L135.137 19.1685L133.601 17.8853L133.601 17.8853ZM115.066 19.2306C116.728 18.1582 118.621 17.2527 120.599 16.6219C121.588 16.2858 122.893 16.0326 123.46 16.0326C124.954 16.011 126.994 16.5373 128.72 17.3789C130.403 18.179 132.317 19.4829 132.044 19.6514C131.96 19.6937 131.392 19.9037 130.824 20.093C130.235 20.2822 129.267 20.7661 128.657 21.1662C127.584 21.8601 127.542 21.8816 126.721 21.587C124.281 20.7238 120.894 20.1561 117.464 20.0299L113.993 19.9037L115.066 19.2306L115.066 19.2306ZM143.889 20.1364C143.889 19.9471 143.911 19.3578 143.931 18.8316C143.973 17.8846 143.994 17.8638 144.563 18.0108C145.488 18.2216 150.054 20.5149 151.653 21.5665C152.936 22.4081 153.041 22.5343 152.558 22.5343C152.221 22.5343 151.4 22.7235 150.706 22.9758L149.443 23.4182L148.012 22.5135C147.234 22.0089 145.992 21.3565 145.235 21.0411C144.352 20.6626 143.868 20.3464 143.889 20.1364L143.889 20.1364ZM130.718 26.3631C131.518 24.5114 133.159 23.2706 135.663 22.6182C137.157 22.219 140.354 22.3874 142.184 22.9552C147.023 24.4699 150.81 28.2572 151.252 32.0229C151.988 38.3558 143.593 41.1961 136.188 37.1141C134.358 36.1048 131.833 33.5377 131.055 31.8968C130.192 30.1288 130.066 27.8986 130.718 26.3631L130.718 26.3631ZM109.996 24.1328C110.732 23.0181 110.795 22.9757 112.058 22.7865C114.119 22.4504 121.651 22.618 123.882 23.0604C124.933 23.2704 125.796 23.4605 125.838 23.4812C125.859 23.502 125.607 24.1336 125.249 24.8698C124.912 25.606 124.554 26.5107 124.491 26.8892C124.365 27.5416 124.365 27.5416 122.766 27.6885C117.927 28.067 113.152 28.9924 109.26 30.3179C108.27 30.6333 107.45 30.8856 107.408 30.8649C107.386 30.8226 107.555 30.0656 107.786 29.1609C108.292 27.2253 108.944 25.7106 109.996 24.1328L109.996 24.1328ZM95.0161 34.8845C97.7294 30.3817 100.675 27.2891 104.357 25.1013C105.367 24.4904 106.209 24.0065 106.251 24.0073C106.356 24.0073 106.188 24.302 105.472 25.3752C104.21 27.2476 102.738 31.0972 102.738 32.5281C102.738 32.9066 102.211 33.3481 100.276 34.6529C97.9195 36.21 94.4899 39.3233 92.9752 41.2589L92.4075 41.9951L92.5336 41.1543C92.7859 39.5341 93.8591 36.82 95.0161 34.8845L95.0161 34.8845ZM151.779 25.3744L152.347 25.2483C153.272 25.0167 154.618 25.0375 155.797 25.2906C156.828 25.5006 157.08 25.7114 159.121 27.7731C160.341 28.9932 161.92 30.845 162.614 31.8966C164.571 34.7783 164.592 34.8838 163.014 33.6844C161.394 32.4643 159.269 31.3911 156.87 30.6342C155.187 30.0872 155.103 30.0241 154.514 28.9932C154.156 28.3832 153.398 27.3308 152.831 26.6369L151.779 25.3744L151.779 25.3744ZM110.731 33.2845C113.824 32.0851 117.17 31.1173 120.578 30.4235C121.925 30.1504 123.334 29.9188 123.69 29.9188C124.321 29.8972 124.363 29.9603 124.49 30.7812C124.617 31.539 125.016 32.6744 125.794 34.4631C125.879 34.61 125.037 35.1569 123.606 35.8724C119.715 37.8287 115.338 40.5428 111.93 43.1308C111.131 43.7201 110.458 44.2039 110.415 44.2039C110.226 44.2039 109.069 41.7214 108.459 39.9958C108.122 38.9857 107.701 37.4502 107.554 36.5455C107.422 35.7575 107.315 35.3064 107.461 34.9613C107.684 34.4311 108.501 34.1512 110.731 33.2845L110.731 33.2845ZM156.134 37.1346L156.092 34.8836C156.092 33.495 156.155 32.6327 156.282 32.6318C156.766 32.6318 160.826 34.7774 162.172 35.7244C164.255 37.2184 166.233 39.2594 166.485 40.1848C167.095 42.4358 167.242 46.8539 166.758 48.1163C166.695 48.3056 166.295 47.9063 165.601 46.8962C163.392 43.6775 160.931 41.0265 157.775 38.4601L156.134 37.1346L156.134 37.1346ZM114.056 47.0658C116.875 44.4356 121.335 40.9222 125.017 38.4396L127.394 36.8411L128.32 37.8719C128.824 38.4396 129.898 39.4074 130.697 39.9967L132.128 41.0907L130.172 43.9309C128.341 46.5819 125.817 50.4107 123.271 54.4711L122.177 56.2182L120.304 54.8927C118.454 53.5888 114.245 49.7177 113.446 48.6022L113.046 48.0129L114.056 47.0658L114.056 47.0658ZM92.9967 46.2232C94.3222 44.2461 97.9617 40.6058 100.318 38.881C101.37 38.1025 102.274 37.4717 102.358 37.4717C102.442 37.4717 102.568 37.6825 102.611 37.9348C103.263 41.0697 103.495 42.0168 103.999 43.363C104.315 44.2254 104.904 45.5924 105.304 46.4133L106.061 47.8857L103.81 50.2006C101.137 52.957 99.1387 55.3972 97.4139 58.0482L96.1307 60.0045L95.7523 59.5206C95.2891 58.9098 93.6482 55.0386 93.1021 53.25C92.8705 52.493 92.5335 50.9359 92.3235 49.7997L91.9866 47.7172L92.9967 46.2232L92.9967 46.2232ZM153.188 41.574C153.778 41.0478 154.472 40.29 154.703 39.8908C154.956 39.4907 155.229 39.1546 155.313 39.1563C155.587 39.1563 159.374 43.1535 160.805 44.9422C162.341 46.8985 164.087 49.508 164.886 51.1066L165.454 52.2213L164.486 53.673C163.982 54.493 163.162 55.5662 162.699 56.0708C161.646 57.2071 159.584 58.8272 159.395 58.6588C159.332 58.5741 158.932 57.4594 158.49 56.1546C157.102 51.9673 155.125 47.5708 152.978 43.952L152.137 42.5211L153.188 41.574L153.188 41.574ZM126.764 58.7421C126.553 58.6159 127.415 56.7011 130.487 50.5367C132.696 46.1394 134.547 42.5206 134.61 42.5222C134.653 42.5222 135.389 42.7961 136.231 43.1323C137.072 43.4477 138.061 43.7846 138.398 43.8685C138.755 43.9531 139.387 44.1208 139.829 44.2262L140.628 44.4362L140.502 45.8455C139.871 52.3884 138.356 62.0662 137.956 62.2347C137.22 62.5078 128.299 59.7306 126.764 58.7421L126.764 58.7421ZM145.424 44.5615C146.54 44.4984 147.865 44.3092 148.391 44.1199C149.969 43.6153 150.011 43.6361 151.168 46.307C153.167 50.9359 155.839 59.7721 155.481 60.6975C155.186 61.4553 149.695 62.6538 145.571 62.8647L142.879 62.9908L143.005 61.4337C143.068 60.5714 143.194 56.4479 143.257 52.2822L143.384 44.6877L145.424 44.5615L145.424 44.5615ZM169.135 51.3576C169.283 50.4952 169.409 49.0851 169.43 48.2227C169.43 47.3595 169.472 46.7079 169.536 46.7494C169.578 46.8125 169.767 47.6965 169.957 48.7273C170.462 51.5676 170.693 55.6279 170.504 57.8789C170.419 58.9728 170.314 59.5621 170.293 59.1837C170.251 58.2159 169.683 55.481 169.22 54.0924C168.883 53.0408 168.862 52.7885 169.135 51.3576L169.135 51.3576ZM99.581 65.2429C99.1818 64.4644 104.483 56.8699 107.976 53.188C108.502 52.641 108.986 52.1995 109.049 52.2194C109.112 52.2194 109.638 52.7879 110.206 53.4818C111.91 55.5435 115.928 59.0154 118.705 60.8456L119.21 61.161L117.463 64.3167C116.496 66.0422 114.728 69.324 113.571 71.5966L111.447 75.7623L109.763 74.6053C107.197 72.859 104.294 70.335 101.895 67.8309C100.717 66.5892 99.6648 65.4114 99.581 65.2429L99.581 65.2429ZM92.3651 71.9757C89.9033 66.3159 88.6832 58.8467 89.4618 54.3448C89.6095 53.524 89.7979 52.8301 89.8826 52.8301C89.9672 52.8301 90.1565 53.524 90.2826 54.3448C90.6611 56.4904 91.8181 59.8569 93.0382 62.2763L94.0691 64.3173L93.5429 66.1059C93.1644 67.3684 92.9751 68.5885 92.9121 70.3979L92.7859 72.9227L92.3651 71.9757L92.3651 71.9757ZM161.772 63.2442C163.308 62.1503 165.601 59.7309 166.506 58.2369C166.905 57.5845 167.284 57.0383 167.349 57.0383C167.517 57.0383 168.127 59.7732 168.401 61.7718C168.674 63.7281 168.527 67.5154 168.106 69.2825C167.517 71.6812 164.887 75.2577 161.984 77.614C161.079 78.3502 160.301 78.8972 160.237 78.8341C160.174 78.7918 160.301 77.9502 160.511 76.9824C160.911 75.0892 161.058 68.9671 160.763 65.7691L160.594 64.0859L161.772 63.2442L161.772 63.2442ZM119.988 72.164C121.629 68.6506 123.186 65.3265 123.418 64.7795C123.671 64.2325 123.881 63.7702 123.901 63.7686C123.922 63.7686 124.679 64.1055 125.584 64.5263C127.688 65.5157 132.822 67.1774 135.157 67.6613L136.987 68.0397L135.872 72.374C134.863 76.3082 132.822 82.8519 132.401 83.5458C132.022 84.1558 123.312 81.7156 119.041 79.8008C118.01 79.3169 117.127 78.8546 117.085 78.7492C117.064 78.6438 118.368 75.6774 119.988 72.164L119.988 72.164ZM144.057 68.6091C147.613 68.6091 151.442 67.9991 154.577 66.9682L156.281 66.3789L156.47 67.0313C156.785 68.1667 156.449 76.0567 155.986 78.3707C155.272 81.9057 155.398 81.6957 153.168 82.4527C149.233 83.7782 145.488 84.3882 141.196 84.3882L138.314 84.3882L138.629 83.5043C139.66 80.5802 140.986 75.1105 141.764 70.6501L142.122 68.6091L144.057 68.6091L144.057 68.6091ZM96.2569 76.4983C96.1523 74.3943 96.383 72.7326 97.0778 70.5655L97.4986 69.2607L98.9295 70.8809C101.517 73.8058 104.82 76.6876 108.123 78.9178L109.638 79.9487L108.817 82.1365C107.997 84.4082 107.156 87.3332 107.156 88.0063C107.156 88.3433 106.966 88.2594 105.914 87.5647C103.81 86.1338 101.559 84.2406 99.4972 82.1365C96.5515 79.1701 96.383 78.897 96.2569 76.4983L96.2569 76.4983ZM159.058 83.0836C159.373 82.8944 160.257 82.1997 161.014 81.5689C161.771 80.9381 162.424 80.4119 162.445 80.3911C162.488 80.3911 162.214 80.7912 161.835 81.2751C160.847 82.5367 156.555 86.934 156.429 86.8078C156.366 86.7448 156.47 86.5339 156.639 86.3447C156.807 86.1347 157.291 85.3977 157.712 84.7038C158.111 84.0091 158.721 83.2729 159.058 83.0836L159.058 83.0836ZM112.332 91.2463C111.974 90.9733 112.268 90.0262 114.056 85.5874C114.793 83.7356 115.129 83.1256 115.361 83.2103C115.529 83.2526 116.539 83.695 117.612 84.1573C121.146 85.7135 126.49 87.3553 129.625 87.8599C130.108 87.9446 130.509 88.05 130.509 88.0915C130.509 88.1546 130.214 88.7854 129.856 89.5008C128.973 91.2887 127.121 94.0235 126.259 94.8444L125.565 95.5175L123.672 95.1174C122.641 94.9066 120.936 94.4651 119.885 94.1704C117.864 93.5819 112.836 91.6464 112.332 91.2463L112.332 91.2463ZM138.124 88.7856C141.953 88.891 147.655 88.0494 150.937 86.9339C153.188 86.1553 153.315 86.1553 152.998 86.7438C151.799 89.0587 149.19 91.6881 146.939 92.8875C143.489 94.6969 138.082 95.9593 133.79 95.9593L131.434 95.9593L132.506 94.8446C133.768 93.5399 134.61 92.3405 135.746 90.258L136.567 88.7433L138.124 88.7856L138.124 88.7856Z" id="Вектор" fill="#332E3C" fill-rule="evenodd" stroke="none" />
    <path d="M77.0731 37.0518C83.5982 18.8096 99.1219 5.25171 118.083 1.23682C146.422 -4.80225 174.674 11.8052 183.165 39.4927C180.753 40.1985 178.312 40.9141 175.844 41.6384C169.873 21.9253 151.561 7.57471 129.899 7.57471C103.389 7.57471 81.8985 29.0649 81.8985 55.5747C81.8985 60.1304 82.5332 64.5378 83.7189 68.7134L75.9136 70.9751C63.0798 74.7134 51.1469 78.3179 40.7186 81.4663C13.8112 89.5928 -3.07266 94.6912 0.467133 91.2686C2.53937 89.2954 38.5911 76.5449 55.9181 65.1777C72.1218 54.5383 74.1113 45.2603 76.1151 39.9587L76.1812 39.6687C76.4653 38.7996 76.7443 37.9097 77.0731 37.0518L77.0731 37.0518ZM257.759 18.8987C248.855 20.4922 219.705 28.8386 183.651 39.3762C184.127 40.9143 184.53 42.5103 184.872 44.1194C185.333 46.269 185.661 48.446 185.853 50.6375C191.982 48.1421 198.068 45.675 203.964 43.2844C240.165 28.6104 269.239 16.8242 257.759 18.8987L257.759 18.8987ZM129.899 103.575C117.477 103.575 106.158 98.8567 97.6351 91.1147C89.4979 103.019 110.414 109.023 115.067 110.146L115.469 110.231L115.919 110.347C133.262 113.945 151.286 109.113 164.502 97.3213C177.718 85.5313 184.561 68.1765 182.948 50.5461C181.238 51.2476 179.525 51.9517 177.811 52.657C177.869 53.6221 177.899 54.595 177.899 55.5747C177.899 82.0845 156.408 103.575 129.899 103.575L129.899 103.575Z" id="Вектор" fill="#9EA3B0" fill-rule="evenodd" stroke="none" />
  </g>
</svg>